G04 #@! TF.GenerationSoftware,KiCad,Pcbnew,(5.1.10)-1*
G04 #@! TF.CreationDate,2021-09-27T00:24:43+02:00*
G04 #@! TF.ProjectId,ili9341,696c6939-3334-4312-9e6b-696361645f70,rev?*
G04 #@! TF.SameCoordinates,Original*
G04 #@! TF.FileFunction,Legend,Bot*
G04 #@! TF.FilePolarity,Positive*
%FSLAX46Y46*%
G04 Gerber Fmt 4.6, Leading zero omitted, Abs format (unit mm)*
G04 Created by KiCad (PCBNEW (5.1.10)-1) date 2021-09-27 00:24:43*
%MOMM*%
%LPD*%
G01*
G04 APERTURE LIST*
%ADD10C,0.120000*%
%ADD11C,0.150000*%
%ADD12O,1.700000X1.700000*%
%ADD13R,1.700000X1.700000*%
%ADD14C,5.600000*%
%ADD15O,1.600000X2.000000*%
%ADD16R,2.000000X2.000000*%
G04 APERTURE END LIST*
D10*
X92710000Y-77470000D02*
X89916000Y-77470000D01*
X95504000Y-70866000D02*
X95504000Y-71628000D01*
X96012000Y-84582000D02*
X96266000Y-84582000D01*
X95504000Y-84074000D02*
X96012000Y-84582000D01*
X95504000Y-83312000D02*
X95504000Y-84074000D01*
X96012000Y-70358000D02*
X95504000Y-70866000D01*
X98298000Y-70358000D02*
X96012000Y-70358000D01*
D11*
X114514380Y-82992595D02*
X115514380Y-83325928D01*
X114514380Y-83659261D01*
X115419142Y-84564023D02*
X115466761Y-84516404D01*
X115514380Y-84373547D01*
X115514380Y-84278309D01*
X115466761Y-84135452D01*
X115371523Y-84040214D01*
X115276285Y-83992595D01*
X115085809Y-83944976D01*
X114942952Y-83944976D01*
X114752476Y-83992595D01*
X114657238Y-84040214D01*
X114562000Y-84135452D01*
X114514380Y-84278309D01*
X114514380Y-84373547D01*
X114562000Y-84516404D01*
X114609619Y-84564023D01*
X115419142Y-85564023D02*
X115466761Y-85516404D01*
X115514380Y-85373547D01*
X115514380Y-85278309D01*
X115466761Y-85135452D01*
X115371523Y-85040214D01*
X115276285Y-84992595D01*
X115085809Y-84944976D01*
X114942952Y-84944976D01*
X114752476Y-84992595D01*
X114657238Y-85040214D01*
X114562000Y-85135452D01*
X114514380Y-85278309D01*
X114514380Y-85373547D01*
X114562000Y-85516404D01*
X114609619Y-85564023D01*
X112022000Y-69947404D02*
X111974380Y-69852166D01*
X111974380Y-69709309D01*
X112022000Y-69566452D01*
X112117238Y-69471214D01*
X112212476Y-69423595D01*
X112402952Y-69375976D01*
X112545809Y-69375976D01*
X112736285Y-69423595D01*
X112831523Y-69471214D01*
X112926761Y-69566452D01*
X112974380Y-69709309D01*
X112974380Y-69804547D01*
X112926761Y-69947404D01*
X112879142Y-69995023D01*
X112545809Y-69995023D01*
X112545809Y-69804547D01*
X112974380Y-70423595D02*
X111974380Y-70423595D01*
X112974380Y-70995023D01*
X111974380Y-70995023D01*
X112974380Y-71471214D02*
X111974380Y-71471214D01*
X111974380Y-71709309D01*
X112022000Y-71852166D01*
X112117238Y-71947404D01*
X112212476Y-71995023D01*
X112402952Y-72042642D01*
X112545809Y-72042642D01*
X112736285Y-71995023D01*
X112831523Y-71947404D01*
X112926761Y-71852166D01*
X112974380Y-71709309D01*
X112974380Y-71471214D01*
X97734380Y-83849738D02*
X97258190Y-83516404D01*
X97734380Y-83278309D02*
X96734380Y-83278309D01*
X96734380Y-83659261D01*
X96782000Y-83754500D01*
X96829619Y-83802119D01*
X96924857Y-83849738D01*
X97067714Y-83849738D01*
X97162952Y-83802119D01*
X97210571Y-83754500D01*
X97258190Y-83659261D01*
X97258190Y-83278309D01*
X97686761Y-84230690D02*
X97734380Y-84373547D01*
X97734380Y-84611642D01*
X97686761Y-84706880D01*
X97639142Y-84754500D01*
X97543904Y-84802119D01*
X97448666Y-84802119D01*
X97353428Y-84754500D01*
X97305809Y-84706880D01*
X97258190Y-84611642D01*
X97210571Y-84421166D01*
X97162952Y-84325928D01*
X97115333Y-84278309D01*
X97020095Y-84230690D01*
X96924857Y-84230690D01*
X96829619Y-84278309D01*
X96782000Y-84325928D01*
X96734380Y-84421166D01*
X96734380Y-84659261D01*
X96782000Y-84802119D01*
X96734380Y-85087833D02*
X96734380Y-85659261D01*
X97734380Y-85373547D02*
X96734380Y-85373547D01*
X112879142Y-84611642D02*
X112926761Y-84564023D01*
X112974380Y-84421166D01*
X112974380Y-84325928D01*
X112926761Y-84183071D01*
X112831523Y-84087833D01*
X112736285Y-84040214D01*
X112545809Y-83992595D01*
X112402952Y-83992595D01*
X112212476Y-84040214D01*
X112117238Y-84087833D01*
X112022000Y-84183071D01*
X111974380Y-84325928D01*
X111974380Y-84421166D01*
X112022000Y-84564023D01*
X112069619Y-84611642D01*
X112926761Y-84992595D02*
X112974380Y-85135452D01*
X112974380Y-85373547D01*
X112926761Y-85468785D01*
X112879142Y-85516404D01*
X112783904Y-85564023D01*
X112688666Y-85564023D01*
X112593428Y-85516404D01*
X112545809Y-85468785D01*
X112498190Y-85373547D01*
X112450571Y-85183071D01*
X112402952Y-85087833D01*
X112355333Y-85040214D01*
X112260095Y-84992595D01*
X112164857Y-84992595D01*
X112069619Y-85040214D01*
X112022000Y-85087833D01*
X111974380Y-85183071D01*
X111974380Y-85421166D01*
X112022000Y-85564023D01*
X110434380Y-82373547D02*
X109434380Y-82373547D01*
X110148666Y-82706880D01*
X109434380Y-83040214D01*
X110434380Y-83040214D01*
X109434380Y-83706880D02*
X109434380Y-83897357D01*
X109482000Y-83992595D01*
X109577238Y-84087833D01*
X109767714Y-84135452D01*
X110101047Y-84135452D01*
X110291523Y-84087833D01*
X110386761Y-83992595D01*
X110434380Y-83897357D01*
X110434380Y-83706880D01*
X110386761Y-83611642D01*
X110291523Y-83516404D01*
X110101047Y-83468785D01*
X109767714Y-83468785D01*
X109577238Y-83516404D01*
X109482000Y-83611642D01*
X109434380Y-83706880D01*
X110386761Y-84516404D02*
X110434380Y-84659261D01*
X110434380Y-84897357D01*
X110386761Y-84992595D01*
X110339142Y-85040214D01*
X110243904Y-85087833D01*
X110148666Y-85087833D01*
X110053428Y-85040214D01*
X110005809Y-84992595D01*
X109958190Y-84897357D01*
X109910571Y-84706880D01*
X109862952Y-84611642D01*
X109815333Y-84564023D01*
X109720095Y-84516404D01*
X109624857Y-84516404D01*
X109529619Y-84564023D01*
X109482000Y-84611642D01*
X109434380Y-84706880D01*
X109434380Y-84944976D01*
X109482000Y-85087833D01*
X110434380Y-85516404D02*
X109434380Y-85516404D01*
X107894380Y-82373547D02*
X106894380Y-82373547D01*
X107608666Y-82706880D01*
X106894380Y-83040214D01*
X107894380Y-83040214D01*
X107894380Y-83516404D02*
X106894380Y-83516404D01*
X107846761Y-83944976D02*
X107894380Y-84087833D01*
X107894380Y-84325928D01*
X107846761Y-84421166D01*
X107799142Y-84468785D01*
X107703904Y-84516404D01*
X107608666Y-84516404D01*
X107513428Y-84468785D01*
X107465809Y-84421166D01*
X107418190Y-84325928D01*
X107370571Y-84135452D01*
X107322952Y-84040214D01*
X107275333Y-83992595D01*
X107180095Y-83944976D01*
X107084857Y-83944976D01*
X106989619Y-83992595D01*
X106942000Y-84040214D01*
X106894380Y-84135452D01*
X106894380Y-84373547D01*
X106942000Y-84516404D01*
X106894380Y-85135452D02*
X106894380Y-85325928D01*
X106942000Y-85421166D01*
X107037238Y-85516404D01*
X107227714Y-85564023D01*
X107561047Y-85564023D01*
X107751523Y-85516404D01*
X107846761Y-85421166D01*
X107894380Y-85325928D01*
X107894380Y-85135452D01*
X107846761Y-85040214D01*
X107751523Y-84944976D01*
X107561047Y-84897357D01*
X107227714Y-84897357D01*
X107037238Y-84944976D01*
X106942000Y-85040214D01*
X106894380Y-85135452D01*
X105259142Y-83754500D02*
X105306761Y-83706880D01*
X105354380Y-83564023D01*
X105354380Y-83468785D01*
X105306761Y-83325928D01*
X105211523Y-83230690D01*
X105116285Y-83183071D01*
X104925809Y-83135452D01*
X104782952Y-83135452D01*
X104592476Y-83183071D01*
X104497238Y-83230690D01*
X104402000Y-83325928D01*
X104354380Y-83468785D01*
X104354380Y-83564023D01*
X104402000Y-83706880D01*
X104449619Y-83754500D01*
X105354380Y-84659261D02*
X105354380Y-84183071D01*
X104354380Y-84183071D01*
X105354380Y-84992595D02*
X104354380Y-84992595D01*
X105354380Y-85564023D02*
X104782952Y-85135452D01*
X104354380Y-85564023D02*
X104925809Y-84992595D01*
X105354380Y-69423595D02*
X104354380Y-69423595D01*
X104354380Y-69661690D01*
X104402000Y-69804547D01*
X104497238Y-69899785D01*
X104592476Y-69947404D01*
X104782952Y-69995023D01*
X104925809Y-69995023D01*
X105116285Y-69947404D01*
X105211523Y-69899785D01*
X105306761Y-69804547D01*
X105354380Y-69661690D01*
X105354380Y-69423595D01*
X104306761Y-71137880D02*
X105592476Y-70280738D01*
X105259142Y-72042642D02*
X105306761Y-71995023D01*
X105354380Y-71852166D01*
X105354380Y-71756928D01*
X105306761Y-71614071D01*
X105211523Y-71518833D01*
X105116285Y-71471214D01*
X104925809Y-71423595D01*
X104782952Y-71423595D01*
X104592476Y-71471214D01*
X104497238Y-71518833D01*
X104402000Y-71614071D01*
X104354380Y-71756928D01*
X104354380Y-71852166D01*
X104402000Y-71995023D01*
X104449619Y-72042642D01*
X107799142Y-69995023D02*
X107846761Y-69947404D01*
X107894380Y-69804547D01*
X107894380Y-69709309D01*
X107846761Y-69566452D01*
X107751523Y-69471214D01*
X107656285Y-69423595D01*
X107465809Y-69375976D01*
X107322952Y-69375976D01*
X107132476Y-69423595D01*
X107037238Y-69471214D01*
X106942000Y-69566452D01*
X106894380Y-69709309D01*
X106894380Y-69804547D01*
X106942000Y-69947404D01*
X106989619Y-69995023D01*
X107846761Y-70375976D02*
X107894380Y-70518833D01*
X107894380Y-70756928D01*
X107846761Y-70852166D01*
X107799142Y-70899785D01*
X107703904Y-70947404D01*
X107608666Y-70947404D01*
X107513428Y-70899785D01*
X107465809Y-70852166D01*
X107418190Y-70756928D01*
X107370571Y-70566452D01*
X107322952Y-70471214D01*
X107275333Y-70423595D01*
X107180095Y-70375976D01*
X107084857Y-70375976D01*
X106989619Y-70423595D01*
X106942000Y-70471214D01*
X106894380Y-70566452D01*
X106894380Y-70804547D01*
X106942000Y-70947404D01*
X100274380Y-69899785D02*
X100274380Y-69423595D01*
X99274380Y-69423595D01*
X99750571Y-70233119D02*
X99750571Y-70566452D01*
X100274380Y-70709309D02*
X100274380Y-70233119D01*
X99274380Y-70233119D01*
X99274380Y-70709309D01*
X100274380Y-71137880D02*
X99274380Y-71137880D01*
X99274380Y-71375976D01*
X99322000Y-71518833D01*
X99417238Y-71614071D01*
X99512476Y-71661690D01*
X99702952Y-71709309D01*
X99845809Y-71709309D01*
X100036285Y-71661690D01*
X100131523Y-71614071D01*
X100226761Y-71518833D01*
X100274380Y-71375976D01*
X100274380Y-71137880D01*
X102814380Y-69423595D02*
X101814380Y-69423595D01*
X102814380Y-70471214D02*
X102338190Y-70137880D01*
X102814380Y-69899785D02*
X101814380Y-69899785D01*
X101814380Y-70280738D01*
X101862000Y-70375976D01*
X101909619Y-70423595D01*
X102004857Y-70471214D01*
X102147714Y-70471214D01*
X102242952Y-70423595D01*
X102290571Y-70375976D01*
X102338190Y-70280738D01*
X102338190Y-69899785D01*
X102909619Y-71566452D02*
X102862000Y-71471214D01*
X102766761Y-71375976D01*
X102623904Y-71233119D01*
X102576285Y-71137880D01*
X102576285Y-71042642D01*
X102814380Y-71090261D02*
X102766761Y-70995023D01*
X102671523Y-70899785D01*
X102481047Y-70852166D01*
X102147714Y-70852166D01*
X101957238Y-70899785D01*
X101862000Y-70995023D01*
X101814380Y-71090261D01*
X101814380Y-71280738D01*
X101862000Y-71375976D01*
X101957238Y-71471214D01*
X102147714Y-71518833D01*
X102481047Y-71518833D01*
X102671523Y-71471214D01*
X102766761Y-71375976D01*
X102814380Y-71280738D01*
X102814380Y-71090261D01*
X113149571Y-74374761D02*
X113149571Y-74708095D01*
X113673380Y-74850952D02*
X113673380Y-74374761D01*
X112673380Y-74374761D01*
X112673380Y-74850952D01*
X113625761Y-75231904D02*
X113673380Y-75374761D01*
X113673380Y-75612857D01*
X113625761Y-75708095D01*
X113578142Y-75755714D01*
X113482904Y-75803333D01*
X113387666Y-75803333D01*
X113292428Y-75755714D01*
X113244809Y-75708095D01*
X113197190Y-75612857D01*
X113149571Y-75422380D01*
X113101952Y-75327142D01*
X113054333Y-75279523D01*
X112959095Y-75231904D01*
X112863857Y-75231904D01*
X112768619Y-75279523D01*
X112721000Y-75327142D01*
X112673380Y-75422380D01*
X112673380Y-75660476D01*
X112721000Y-75803333D01*
X113673380Y-76231904D02*
X112673380Y-76231904D01*
X112673380Y-76612857D01*
X112721000Y-76708095D01*
X112768619Y-76755714D01*
X112863857Y-76803333D01*
X113006714Y-76803333D01*
X113101952Y-76755714D01*
X113149571Y-76708095D01*
X113197190Y-76612857D01*
X113197190Y-76231904D01*
X113101952Y-77374761D02*
X113054333Y-77279523D01*
X113006714Y-77231904D01*
X112911476Y-77184285D01*
X112863857Y-77184285D01*
X112768619Y-77231904D01*
X112721000Y-77279523D01*
X112673380Y-77374761D01*
X112673380Y-77565238D01*
X112721000Y-77660476D01*
X112768619Y-77708095D01*
X112863857Y-77755714D01*
X112911476Y-77755714D01*
X113006714Y-77708095D01*
X113054333Y-77660476D01*
X113101952Y-77565238D01*
X113101952Y-77374761D01*
X113149571Y-77279523D01*
X113197190Y-77231904D01*
X113292428Y-77184285D01*
X113482904Y-77184285D01*
X113578142Y-77231904D01*
X113625761Y-77279523D01*
X113673380Y-77374761D01*
X113673380Y-77565238D01*
X113625761Y-77660476D01*
X113578142Y-77708095D01*
X113482904Y-77755714D01*
X113292428Y-77755714D01*
X113197190Y-77708095D01*
X113149571Y-77660476D01*
X113101952Y-77565238D01*
X112768619Y-78136666D02*
X112721000Y-78184285D01*
X112673380Y-78279523D01*
X112673380Y-78517619D01*
X112721000Y-78612857D01*
X112768619Y-78660476D01*
X112863857Y-78708095D01*
X112959095Y-78708095D01*
X113101952Y-78660476D01*
X113673380Y-78089047D01*
X113673380Y-78708095D01*
X112673380Y-79565238D02*
X112673380Y-79374761D01*
X112721000Y-79279523D01*
X112768619Y-79231904D01*
X112911476Y-79136666D01*
X113101952Y-79089047D01*
X113482904Y-79089047D01*
X113578142Y-79136666D01*
X113625761Y-79184285D01*
X113673380Y-79279523D01*
X113673380Y-79470000D01*
X113625761Y-79565238D01*
X113578142Y-79612857D01*
X113482904Y-79660476D01*
X113244809Y-79660476D01*
X113149571Y-79612857D01*
X113101952Y-79565238D01*
X113054333Y-79470000D01*
X113054333Y-79279523D01*
X113101952Y-79184285D01*
X113149571Y-79136666D01*
X113244809Y-79089047D01*
X112673380Y-80517619D02*
X112673380Y-80327142D01*
X112721000Y-80231904D01*
X112768619Y-80184285D01*
X112911476Y-80089047D01*
X113101952Y-80041428D01*
X113482904Y-80041428D01*
X113578142Y-80089047D01*
X113625761Y-80136666D01*
X113673380Y-80231904D01*
X113673380Y-80422380D01*
X113625761Y-80517619D01*
X113578142Y-80565238D01*
X113482904Y-80612857D01*
X113244809Y-80612857D01*
X113149571Y-80565238D01*
X113101952Y-80517619D01*
X113054333Y-80422380D01*
X113054333Y-80231904D01*
X113101952Y-80136666D01*
X113149571Y-80089047D01*
X113244809Y-80041428D01*
X115323380Y-74755714D02*
X114323380Y-74755714D01*
X114323380Y-74993809D01*
X114371000Y-75136666D01*
X114466238Y-75231904D01*
X114561476Y-75279523D01*
X114751952Y-75327142D01*
X114894809Y-75327142D01*
X115085285Y-75279523D01*
X115180523Y-75231904D01*
X115275761Y-75136666D01*
X115323380Y-74993809D01*
X115323380Y-74755714D01*
X115323380Y-76279523D02*
X115323380Y-75708095D01*
X115323380Y-75993809D02*
X114323380Y-75993809D01*
X114466238Y-75898571D01*
X114561476Y-75803333D01*
X114609095Y-75708095D01*
X115323380Y-77470000D02*
X114656714Y-77470000D01*
X114751952Y-77470000D02*
X114704333Y-77517619D01*
X114656714Y-77612857D01*
X114656714Y-77755714D01*
X114704333Y-77850952D01*
X114799571Y-77898571D01*
X115323380Y-77898571D01*
X114799571Y-77898571D02*
X114704333Y-77946190D01*
X114656714Y-78041428D01*
X114656714Y-78184285D01*
X114704333Y-78279523D01*
X114799571Y-78327142D01*
X115323380Y-78327142D01*
X115323380Y-78803333D02*
X114656714Y-78803333D01*
X114323380Y-78803333D02*
X114371000Y-78755714D01*
X114418619Y-78803333D01*
X114371000Y-78850952D01*
X114323380Y-78803333D01*
X114418619Y-78803333D01*
X114656714Y-79279523D02*
X115323380Y-79279523D01*
X114751952Y-79279523D02*
X114704333Y-79327142D01*
X114656714Y-79422380D01*
X114656714Y-79565238D01*
X114704333Y-79660476D01*
X114799571Y-79708095D01*
X115323380Y-79708095D01*
X115323380Y-80184285D02*
X114656714Y-80184285D01*
X114323380Y-80184285D02*
X114371000Y-80136666D01*
X114418619Y-80184285D01*
X114371000Y-80231904D01*
X114323380Y-80184285D01*
X114418619Y-80184285D01*
X94115380Y-71279523D02*
X93115380Y-71279523D01*
X94115380Y-72231904D02*
X94115380Y-71755714D01*
X93115380Y-71755714D01*
X94115380Y-72565238D02*
X93115380Y-72565238D01*
X94115380Y-73089047D02*
X94115380Y-73279523D01*
X94067761Y-73374761D01*
X94020142Y-73422380D01*
X93877285Y-73517619D01*
X93686809Y-73565238D01*
X93305857Y-73565238D01*
X93210619Y-73517619D01*
X93163000Y-73470000D01*
X93115380Y-73374761D01*
X93115380Y-73184285D01*
X93163000Y-73089047D01*
X93210619Y-73041428D01*
X93305857Y-72993809D01*
X93543952Y-72993809D01*
X93639190Y-73041428D01*
X93686809Y-73089047D01*
X93734428Y-73184285D01*
X93734428Y-73374761D01*
X93686809Y-73470000D01*
X93639190Y-73517619D01*
X93543952Y-73565238D01*
X93115380Y-73898571D02*
X93115380Y-74517619D01*
X93496333Y-74184285D01*
X93496333Y-74327142D01*
X93543952Y-74422380D01*
X93591571Y-74470000D01*
X93686809Y-74517619D01*
X93924904Y-74517619D01*
X94020142Y-74470000D01*
X94067761Y-74422380D01*
X94115380Y-74327142D01*
X94115380Y-74041428D01*
X94067761Y-73946190D01*
X94020142Y-73898571D01*
X93448714Y-75374761D02*
X94115380Y-75374761D01*
X93067761Y-75136666D02*
X93782047Y-74898571D01*
X93782047Y-75517619D01*
X94115380Y-76422380D02*
X94115380Y-75850952D01*
X94115380Y-76136666D02*
X93115380Y-76136666D01*
X93258238Y-76041428D01*
X93353476Y-75946190D01*
X93401095Y-75850952D01*
X93210619Y-77565238D02*
X93163000Y-77612857D01*
X93115380Y-77708095D01*
X93115380Y-77946190D01*
X93163000Y-78041428D01*
X93210619Y-78089047D01*
X93305857Y-78136666D01*
X93401095Y-78136666D01*
X93543952Y-78089047D01*
X94115380Y-77517619D01*
X94115380Y-78136666D01*
X93448714Y-78993809D02*
X94115380Y-78993809D01*
X93067761Y-78755714D02*
X93782047Y-78517619D01*
X93782047Y-79136666D01*
X93115380Y-79708095D02*
X93115380Y-79803333D01*
X93163000Y-79898571D01*
X93210619Y-79946190D01*
X93305857Y-79993809D01*
X93496333Y-80041428D01*
X93734428Y-80041428D01*
X93924904Y-79993809D01*
X94020142Y-79946190D01*
X94067761Y-79898571D01*
X94115380Y-79803333D01*
X94115380Y-79708095D01*
X94067761Y-79612857D01*
X94020142Y-79565238D01*
X93924904Y-79517619D01*
X93734428Y-79470000D01*
X93496333Y-79470000D01*
X93305857Y-79517619D01*
X93210619Y-79565238D01*
X93163000Y-79612857D01*
X93115380Y-79708095D01*
X94115380Y-80374761D02*
X93448714Y-80898571D01*
X93448714Y-80374761D02*
X94115380Y-80898571D01*
X93115380Y-81184285D02*
X93115380Y-81803333D01*
X93496333Y-81470000D01*
X93496333Y-81612857D01*
X93543952Y-81708095D01*
X93591571Y-81755714D01*
X93686809Y-81803333D01*
X93924904Y-81803333D01*
X94020142Y-81755714D01*
X94067761Y-81708095D01*
X94115380Y-81612857D01*
X94115380Y-81327142D01*
X94067761Y-81231904D01*
X94020142Y-81184285D01*
X93210619Y-82184285D02*
X93163000Y-82231904D01*
X93115380Y-82327142D01*
X93115380Y-82565238D01*
X93163000Y-82660476D01*
X93210619Y-82708095D01*
X93305857Y-82755714D01*
X93401095Y-82755714D01*
X93543952Y-82708095D01*
X94115380Y-82136666D01*
X94115380Y-82755714D01*
X93115380Y-83374761D02*
X93115380Y-83470000D01*
X93163000Y-83565238D01*
X93210619Y-83612857D01*
X93305857Y-83660476D01*
X93496333Y-83708095D01*
X93734428Y-83708095D01*
X93924904Y-83660476D01*
X94020142Y-83612857D01*
X94067761Y-83565238D01*
X94115380Y-83470000D01*
X94115380Y-83374761D01*
X94067761Y-83279523D01*
X94020142Y-83231904D01*
X93924904Y-83184285D01*
X93734428Y-83136666D01*
X93496333Y-83136666D01*
X93305857Y-83184285D01*
X93210619Y-83231904D01*
X93163000Y-83279523D01*
X93115380Y-83374761D01*
X95765380Y-72112857D02*
X95098714Y-72636666D01*
X95098714Y-72112857D02*
X95765380Y-72636666D01*
X95098714Y-73017619D02*
X96098714Y-73017619D01*
X95146333Y-73017619D02*
X95098714Y-73112857D01*
X95098714Y-73303333D01*
X95146333Y-73398571D01*
X95193952Y-73446190D01*
X95289190Y-73493809D01*
X95574904Y-73493809D01*
X95670142Y-73446190D01*
X95717761Y-73398571D01*
X95765380Y-73303333D01*
X95765380Y-73112857D01*
X95717761Y-73017619D01*
X95098714Y-73779523D02*
X95098714Y-74160476D01*
X94765380Y-73922380D02*
X95622523Y-73922380D01*
X95717761Y-73970000D01*
X95765380Y-74065238D01*
X95765380Y-74160476D01*
X94860619Y-74446190D02*
X94813000Y-74493809D01*
X94765380Y-74589047D01*
X94765380Y-74827142D01*
X94813000Y-74922380D01*
X94860619Y-74970000D01*
X94955857Y-75017619D01*
X95051095Y-75017619D01*
X95193952Y-74970000D01*
X95765380Y-74398571D01*
X95765380Y-75017619D01*
X94765380Y-75636666D02*
X94765380Y-75731904D01*
X94813000Y-75827142D01*
X94860619Y-75874761D01*
X94955857Y-75922380D01*
X95146333Y-75970000D01*
X95384428Y-75970000D01*
X95574904Y-75922380D01*
X95670142Y-75874761D01*
X95717761Y-75827142D01*
X95765380Y-75731904D01*
X95765380Y-75636666D01*
X95717761Y-75541428D01*
X95670142Y-75493809D01*
X95574904Y-75446190D01*
X95384428Y-75398571D01*
X95146333Y-75398571D01*
X94955857Y-75446190D01*
X94860619Y-75493809D01*
X94813000Y-75541428D01*
X94765380Y-75636666D01*
X95098714Y-76827142D02*
X95765380Y-76827142D01*
X94717761Y-76589047D02*
X95432047Y-76350952D01*
X95432047Y-76970000D01*
X94765380Y-77779523D02*
X94765380Y-77589047D01*
X94813000Y-77493809D01*
X94860619Y-77446190D01*
X95003476Y-77350952D01*
X95193952Y-77303333D01*
X95574904Y-77303333D01*
X95670142Y-77350952D01*
X95717761Y-77398571D01*
X95765380Y-77493809D01*
X95765380Y-77684285D01*
X95717761Y-77779523D01*
X95670142Y-77827142D01*
X95574904Y-77874761D01*
X95336809Y-77874761D01*
X95241571Y-77827142D01*
X95193952Y-77779523D01*
X95146333Y-77684285D01*
X95146333Y-77493809D01*
X95193952Y-77398571D01*
X95241571Y-77350952D01*
X95336809Y-77303333D01*
X95098714Y-78922380D02*
X95098714Y-79303333D01*
X94765380Y-79065238D02*
X95622523Y-79065238D01*
X95717761Y-79112857D01*
X95765380Y-79208095D01*
X95765380Y-79303333D01*
X95765380Y-79779523D02*
X95717761Y-79684285D01*
X95670142Y-79636666D01*
X95574904Y-79589047D01*
X95289190Y-79589047D01*
X95193952Y-79636666D01*
X95146333Y-79684285D01*
X95098714Y-79779523D01*
X95098714Y-79922380D01*
X95146333Y-80017619D01*
X95193952Y-80065238D01*
X95289190Y-80112857D01*
X95574904Y-80112857D01*
X95670142Y-80065238D01*
X95717761Y-80017619D01*
X95765380Y-79922380D01*
X95765380Y-79779523D01*
X95098714Y-80970000D02*
X95765380Y-80970000D01*
X95098714Y-80541428D02*
X95622523Y-80541428D01*
X95717761Y-80589047D01*
X95765380Y-80684285D01*
X95765380Y-80827142D01*
X95717761Y-80922380D01*
X95670142Y-80970000D01*
X95717761Y-81874761D02*
X95765380Y-81779523D01*
X95765380Y-81589047D01*
X95717761Y-81493809D01*
X95670142Y-81446190D01*
X95574904Y-81398571D01*
X95289190Y-81398571D01*
X95193952Y-81446190D01*
X95146333Y-81493809D01*
X95098714Y-81589047D01*
X95098714Y-81779523D01*
X95146333Y-81874761D01*
X95765380Y-82303333D02*
X94765380Y-82303333D01*
X95765380Y-82731904D02*
X95241571Y-82731904D01*
X95146333Y-82684285D01*
X95098714Y-82589047D01*
X95098714Y-82446190D01*
X95146333Y-82350952D01*
X95193952Y-82303333D01*
X114871523Y-68873619D02*
X114395333Y-68873619D01*
X114347714Y-68397428D01*
X114395333Y-68445047D01*
X114490571Y-68492666D01*
X114728666Y-68492666D01*
X114823904Y-68445047D01*
X114871523Y-68397428D01*
X114919142Y-68302190D01*
X114919142Y-68064095D01*
X114871523Y-67968857D01*
X114823904Y-67921238D01*
X114728666Y-67873619D01*
X114490571Y-67873619D01*
X114395333Y-67921238D01*
X114347714Y-67968857D01*
X115204857Y-68873619D02*
X115538190Y-67873619D01*
X115871523Y-68873619D01*
X111760095Y-68826000D02*
X111664857Y-68873619D01*
X111522000Y-68873619D01*
X111379142Y-68826000D01*
X111283904Y-68730761D01*
X111236285Y-68635523D01*
X111188666Y-68445047D01*
X111188666Y-68302190D01*
X111236285Y-68111714D01*
X111283904Y-68016476D01*
X111379142Y-67921238D01*
X111522000Y-67873619D01*
X111617238Y-67873619D01*
X111760095Y-67921238D01*
X111807714Y-67968857D01*
X111807714Y-68302190D01*
X111617238Y-68302190D01*
X112236285Y-67873619D02*
X112236285Y-68873619D01*
X112807714Y-67873619D01*
X112807714Y-68873619D01*
X113283904Y-67873619D02*
X113283904Y-68873619D01*
X113522000Y-68873619D01*
X113664857Y-68826000D01*
X113760095Y-68730761D01*
X113807714Y-68635523D01*
X113855333Y-68445047D01*
X113855333Y-68302190D01*
X113807714Y-68111714D01*
X113760095Y-68016476D01*
X113664857Y-67921238D01*
X113522000Y-67873619D01*
X113283904Y-67873619D01*
X109243904Y-67873619D02*
X109243904Y-68873619D01*
X109482000Y-68873619D01*
X109624857Y-68826000D01*
X109720095Y-68730761D01*
X109767714Y-68635523D01*
X109815333Y-68445047D01*
X109815333Y-68302190D01*
X109767714Y-68111714D01*
X109720095Y-68016476D01*
X109624857Y-67921238D01*
X109482000Y-67873619D01*
X109243904Y-67873619D01*
X110672476Y-68540285D02*
X110672476Y-67873619D01*
X110434380Y-68921238D02*
X110196285Y-68206952D01*
X110815333Y-68206952D01*
X106703904Y-67873619D02*
X106703904Y-68873619D01*
X106942000Y-68873619D01*
X107084857Y-68826000D01*
X107180095Y-68730761D01*
X107227714Y-68635523D01*
X107275333Y-68445047D01*
X107275333Y-68302190D01*
X107227714Y-68111714D01*
X107180095Y-68016476D01*
X107084857Y-67921238D01*
X106942000Y-67873619D01*
X106703904Y-67873619D01*
X107608666Y-68873619D02*
X108227714Y-68873619D01*
X107894380Y-68492666D01*
X108037238Y-68492666D01*
X108132476Y-68445047D01*
X108180095Y-68397428D01*
X108227714Y-68302190D01*
X108227714Y-68064095D01*
X108180095Y-67968857D01*
X108132476Y-67921238D01*
X108037238Y-67873619D01*
X107751523Y-67873619D01*
X107656285Y-67921238D01*
X107608666Y-67968857D01*
X104163904Y-67873619D02*
X104163904Y-68873619D01*
X104402000Y-68873619D01*
X104544857Y-68826000D01*
X104640095Y-68730761D01*
X104687714Y-68635523D01*
X104735333Y-68445047D01*
X104735333Y-68302190D01*
X104687714Y-68111714D01*
X104640095Y-68016476D01*
X104544857Y-67921238D01*
X104402000Y-67873619D01*
X104163904Y-67873619D01*
X105116285Y-68778380D02*
X105163904Y-68826000D01*
X105259142Y-68873619D01*
X105497238Y-68873619D01*
X105592476Y-68826000D01*
X105640095Y-68778380D01*
X105687714Y-68683142D01*
X105687714Y-68587904D01*
X105640095Y-68445047D01*
X105068666Y-67873619D01*
X105687714Y-67873619D01*
X101623904Y-67873619D02*
X101623904Y-68873619D01*
X101862000Y-68873619D01*
X102004857Y-68826000D01*
X102100095Y-68730761D01*
X102147714Y-68635523D01*
X102195333Y-68445047D01*
X102195333Y-68302190D01*
X102147714Y-68111714D01*
X102100095Y-68016476D01*
X102004857Y-67921238D01*
X101862000Y-67873619D01*
X101623904Y-67873619D01*
X103147714Y-67873619D02*
X102576285Y-67873619D01*
X102862000Y-67873619D02*
X102862000Y-68873619D01*
X102766761Y-68730761D01*
X102671523Y-68635523D01*
X102576285Y-68587904D01*
X99655333Y-67873619D02*
X99322000Y-68349809D01*
X99083904Y-67873619D02*
X99083904Y-68873619D01*
X99464857Y-68873619D01*
X99560095Y-68826000D01*
X99607714Y-68778380D01*
X99655333Y-68683142D01*
X99655333Y-68540285D01*
X99607714Y-68445047D01*
X99560095Y-68397428D01*
X99464857Y-68349809D01*
X99083904Y-68349809D01*
X99988666Y-68873619D02*
X100655333Y-67873619D01*
X100655333Y-68873619D02*
X99988666Y-67873619D01*
X96520095Y-68873619D02*
X97091523Y-68873619D01*
X96805809Y-67873619D02*
X96805809Y-68873619D01*
X97329619Y-68873619D02*
X97996285Y-67873619D01*
X97996285Y-68873619D02*
X97329619Y-67873619D01*
X109243904Y-86161619D02*
X109243904Y-87161619D01*
X109482000Y-87161619D01*
X109624857Y-87114000D01*
X109720095Y-87018761D01*
X109767714Y-86923523D01*
X109815333Y-86733047D01*
X109815333Y-86590190D01*
X109767714Y-86399714D01*
X109720095Y-86304476D01*
X109624857Y-86209238D01*
X109482000Y-86161619D01*
X109243904Y-86161619D01*
X110148666Y-87161619D02*
X110815333Y-87161619D01*
X110386761Y-86161619D01*
X106703904Y-86161619D02*
X106703904Y-87161619D01*
X106942000Y-87161619D01*
X107084857Y-87114000D01*
X107180095Y-87018761D01*
X107227714Y-86923523D01*
X107275333Y-86733047D01*
X107275333Y-86590190D01*
X107227714Y-86399714D01*
X107180095Y-86304476D01*
X107084857Y-86209238D01*
X106942000Y-86161619D01*
X106703904Y-86161619D01*
X108132476Y-87161619D02*
X107942000Y-87161619D01*
X107846761Y-87114000D01*
X107799142Y-87066380D01*
X107703904Y-86923523D01*
X107656285Y-86733047D01*
X107656285Y-86352095D01*
X107703904Y-86256857D01*
X107751523Y-86209238D01*
X107846761Y-86161619D01*
X108037238Y-86161619D01*
X108132476Y-86209238D01*
X108180095Y-86256857D01*
X108227714Y-86352095D01*
X108227714Y-86590190D01*
X108180095Y-86685428D01*
X108132476Y-86733047D01*
X108037238Y-86780666D01*
X107846761Y-86780666D01*
X107751523Y-86733047D01*
X107703904Y-86685428D01*
X107656285Y-86590190D01*
X113823904Y-87161619D02*
X114442952Y-87161619D01*
X114109619Y-86780666D01*
X114252476Y-86780666D01*
X114347714Y-86733047D01*
X114395333Y-86685428D01*
X114442952Y-86590190D01*
X114442952Y-86352095D01*
X114395333Y-86256857D01*
X114347714Y-86209238D01*
X114252476Y-86161619D01*
X113966761Y-86161619D01*
X113871523Y-86209238D01*
X113823904Y-86256857D01*
X114728666Y-87161619D02*
X115062000Y-86161619D01*
X115395333Y-87161619D01*
X115633428Y-87161619D02*
X116252476Y-87161619D01*
X115919142Y-86780666D01*
X116062000Y-86780666D01*
X116157238Y-86733047D01*
X116204857Y-86685428D01*
X116252476Y-86590190D01*
X116252476Y-86352095D01*
X116204857Y-86256857D01*
X116157238Y-86209238D01*
X116062000Y-86161619D01*
X115776285Y-86161619D01*
X115681047Y-86209238D01*
X115633428Y-86256857D01*
X111783904Y-86161619D02*
X111783904Y-87161619D01*
X112022000Y-87161619D01*
X112164857Y-87114000D01*
X112260095Y-87018761D01*
X112307714Y-86923523D01*
X112355333Y-86733047D01*
X112355333Y-86590190D01*
X112307714Y-86399714D01*
X112260095Y-86304476D01*
X112164857Y-86209238D01*
X112022000Y-86161619D01*
X111783904Y-86161619D01*
X112926761Y-86733047D02*
X112831523Y-86780666D01*
X112783904Y-86828285D01*
X112736285Y-86923523D01*
X112736285Y-86971142D01*
X112783904Y-87066380D01*
X112831523Y-87114000D01*
X112926761Y-87161619D01*
X113117238Y-87161619D01*
X113212476Y-87114000D01*
X113260095Y-87066380D01*
X113307714Y-86971142D01*
X113307714Y-86923523D01*
X113260095Y-86828285D01*
X113212476Y-86780666D01*
X113117238Y-86733047D01*
X112926761Y-86733047D01*
X112831523Y-86685428D01*
X112783904Y-86637809D01*
X112736285Y-86542571D01*
X112736285Y-86352095D01*
X112783904Y-86256857D01*
X112831523Y-86209238D01*
X112926761Y-86161619D01*
X113117238Y-86161619D01*
X113212476Y-86209238D01*
X113260095Y-86256857D01*
X113307714Y-86352095D01*
X113307714Y-86542571D01*
X113260095Y-86637809D01*
X113212476Y-86685428D01*
X113117238Y-86733047D01*
X104163904Y-86161619D02*
X104163904Y-87161619D01*
X104402000Y-87161619D01*
X104544857Y-87114000D01*
X104640095Y-87018761D01*
X104687714Y-86923523D01*
X104735333Y-86733047D01*
X104735333Y-86590190D01*
X104687714Y-86399714D01*
X104640095Y-86304476D01*
X104544857Y-86209238D01*
X104402000Y-86161619D01*
X104163904Y-86161619D01*
X105640095Y-87161619D02*
X105163904Y-87161619D01*
X105116285Y-86685428D01*
X105163904Y-86733047D01*
X105259142Y-86780666D01*
X105497238Y-86780666D01*
X105592476Y-86733047D01*
X105640095Y-86685428D01*
X105687714Y-86590190D01*
X105687714Y-86352095D01*
X105640095Y-86256857D01*
X105592476Y-86209238D01*
X105497238Y-86161619D01*
X105259142Y-86161619D01*
X105163904Y-86209238D01*
X105116285Y-86256857D01*
X101623904Y-86161619D02*
X101623904Y-87161619D01*
X101862000Y-87161619D01*
X102004857Y-87114000D01*
X102100095Y-87018761D01*
X102147714Y-86923523D01*
X102195333Y-86733047D01*
X102195333Y-86590190D01*
X102147714Y-86399714D01*
X102100095Y-86304476D01*
X102004857Y-86209238D01*
X101862000Y-86161619D01*
X101623904Y-86161619D01*
X102814380Y-87161619D02*
X102909619Y-87161619D01*
X103004857Y-87114000D01*
X103052476Y-87066380D01*
X103100095Y-86971142D01*
X103147714Y-86780666D01*
X103147714Y-86542571D01*
X103100095Y-86352095D01*
X103052476Y-86256857D01*
X103004857Y-86209238D01*
X102909619Y-86161619D01*
X102814380Y-86161619D01*
X102719142Y-86209238D01*
X102671523Y-86256857D01*
X102623904Y-86352095D01*
X102576285Y-86542571D01*
X102576285Y-86780666D01*
X102623904Y-86971142D01*
X102671523Y-87066380D01*
X102719142Y-87114000D01*
X102814380Y-87161619D01*
X99107714Y-86447333D02*
X99583904Y-86447333D01*
X99012476Y-86161619D02*
X99345809Y-87161619D01*
X99679142Y-86161619D01*
X100202952Y-87161619D02*
X100298190Y-87161619D01*
X100393428Y-87114000D01*
X100441047Y-87066380D01*
X100488666Y-86971142D01*
X100536285Y-86780666D01*
X100536285Y-86542571D01*
X100488666Y-86352095D01*
X100441047Y-86256857D01*
X100393428Y-86209238D01*
X100298190Y-86161619D01*
X100202952Y-86161619D01*
X100107714Y-86209238D01*
X100060095Y-86256857D01*
X100012476Y-86352095D01*
X99964857Y-86542571D01*
X99964857Y-86780666D01*
X100012476Y-86971142D01*
X100060095Y-87066380D01*
X100107714Y-87114000D01*
X100202952Y-87161619D01*
X96734380Y-86161619D02*
X96401047Y-86637809D01*
X96162952Y-86161619D02*
X96162952Y-87161619D01*
X96543904Y-87161619D01*
X96639142Y-87114000D01*
X96686761Y-87066380D01*
X96734380Y-86971142D01*
X96734380Y-86828285D01*
X96686761Y-86733047D01*
X96639142Y-86685428D01*
X96543904Y-86637809D01*
X96162952Y-86637809D01*
X97115333Y-86209238D02*
X97258190Y-86161619D01*
X97496285Y-86161619D01*
X97591523Y-86209238D01*
X97639142Y-86256857D01*
X97686761Y-86352095D01*
X97686761Y-86447333D01*
X97639142Y-86542571D01*
X97591523Y-86590190D01*
X97496285Y-86637809D01*
X97305809Y-86685428D01*
X97210571Y-86733047D01*
X97162952Y-86780666D01*
X97115333Y-86875904D01*
X97115333Y-86971142D01*
X97162952Y-87066380D01*
X97210571Y-87114000D01*
X97305809Y-87161619D01*
X97543904Y-87161619D01*
X97686761Y-87114000D01*
X97972476Y-87161619D02*
X98543904Y-87161619D01*
X98258190Y-86161619D02*
X98258190Y-87161619D01*
X87267023Y-70762857D02*
X87219404Y-70715238D01*
X87076547Y-70667619D01*
X86981309Y-70667619D01*
X86838452Y-70715238D01*
X86743214Y-70810476D01*
X86695595Y-70905714D01*
X86647976Y-71096190D01*
X86647976Y-71239047D01*
X86695595Y-71429523D01*
X86743214Y-71524761D01*
X86838452Y-71620000D01*
X86981309Y-71667619D01*
X87076547Y-71667619D01*
X87219404Y-71620000D01*
X87267023Y-71572380D01*
X88171785Y-70667619D02*
X87695595Y-70667619D01*
X87695595Y-71667619D01*
X88505119Y-70667619D02*
X88505119Y-71667619D01*
X89076547Y-70667619D02*
X88647976Y-71239047D01*
X89076547Y-71667619D02*
X88505119Y-71096190D01*
X86695595Y-63047619D02*
X86695595Y-64047619D01*
X87028928Y-63333333D01*
X87362261Y-64047619D01*
X87362261Y-63047619D01*
X87838452Y-63047619D02*
X87838452Y-64047619D01*
X88267023Y-63095238D02*
X88409880Y-63047619D01*
X88647976Y-63047619D01*
X88743214Y-63095238D01*
X88790833Y-63142857D01*
X88838452Y-63238095D01*
X88838452Y-63333333D01*
X88790833Y-63428571D01*
X88743214Y-63476190D01*
X88647976Y-63523809D01*
X88457500Y-63571428D01*
X88362261Y-63619047D01*
X88314642Y-63666666D01*
X88267023Y-63761904D01*
X88267023Y-63857142D01*
X88314642Y-63952380D01*
X88362261Y-64000000D01*
X88457500Y-64047619D01*
X88695595Y-64047619D01*
X88838452Y-64000000D01*
X89457500Y-64047619D02*
X89647976Y-64047619D01*
X89743214Y-64000000D01*
X89838452Y-63904761D01*
X89886071Y-63714285D01*
X89886071Y-63380952D01*
X89838452Y-63190476D01*
X89743214Y-63095238D01*
X89647976Y-63047619D01*
X89457500Y-63047619D01*
X89362261Y-63095238D01*
X89267023Y-63190476D01*
X89219404Y-63380952D01*
X89219404Y-63714285D01*
X89267023Y-63904761D01*
X89362261Y-64000000D01*
X89457500Y-64047619D01*
X86695595Y-65587619D02*
X86695595Y-66587619D01*
X87028928Y-65873333D01*
X87362261Y-66587619D01*
X87362261Y-65587619D01*
X88028928Y-66587619D02*
X88219404Y-66587619D01*
X88314642Y-66540000D01*
X88409880Y-66444761D01*
X88457500Y-66254285D01*
X88457500Y-65920952D01*
X88409880Y-65730476D01*
X88314642Y-65635238D01*
X88219404Y-65587619D01*
X88028928Y-65587619D01*
X87933690Y-65635238D01*
X87838452Y-65730476D01*
X87790833Y-65920952D01*
X87790833Y-66254285D01*
X87838452Y-66444761D01*
X87933690Y-66540000D01*
X88028928Y-66587619D01*
X88838452Y-65635238D02*
X88981309Y-65587619D01*
X89219404Y-65587619D01*
X89314642Y-65635238D01*
X89362261Y-65682857D01*
X89409880Y-65778095D01*
X89409880Y-65873333D01*
X89362261Y-65968571D01*
X89314642Y-66016190D01*
X89219404Y-66063809D01*
X89028928Y-66111428D01*
X88933690Y-66159047D01*
X88886071Y-66206666D01*
X88838452Y-66301904D01*
X88838452Y-66397142D01*
X88886071Y-66492380D01*
X88933690Y-66540000D01*
X89028928Y-66587619D01*
X89267023Y-66587619D01*
X89409880Y-66540000D01*
X89838452Y-65587619D02*
X89838452Y-66587619D01*
X86695595Y-83367619D02*
X86695595Y-84367619D01*
X86933690Y-84367619D01*
X87076547Y-84320000D01*
X87171785Y-84224761D01*
X87219404Y-84129523D01*
X87267023Y-83939047D01*
X87267023Y-83796190D01*
X87219404Y-83605714D01*
X87171785Y-83510476D01*
X87076547Y-83415238D01*
X86933690Y-83367619D01*
X86695595Y-83367619D01*
X88409880Y-84415238D02*
X87552738Y-83129523D01*
X89314642Y-83462857D02*
X89267023Y-83415238D01*
X89124166Y-83367619D01*
X89028928Y-83367619D01*
X88886071Y-83415238D01*
X88790833Y-83510476D01*
X88743214Y-83605714D01*
X88695595Y-83796190D01*
X88695595Y-83939047D01*
X88743214Y-84129523D01*
X88790833Y-84224761D01*
X88886071Y-84320000D01*
X89028928Y-84367619D01*
X89124166Y-84367619D01*
X89267023Y-84320000D01*
X89314642Y-84272380D01*
X87267023Y-68222857D02*
X87219404Y-68175238D01*
X87076547Y-68127619D01*
X86981309Y-68127619D01*
X86838452Y-68175238D01*
X86743214Y-68270476D01*
X86695595Y-68365714D01*
X86647976Y-68556190D01*
X86647976Y-68699047D01*
X86695595Y-68889523D01*
X86743214Y-68984761D01*
X86838452Y-69080000D01*
X86981309Y-69127619D01*
X87076547Y-69127619D01*
X87219404Y-69080000D01*
X87267023Y-69032380D01*
X87647976Y-68175238D02*
X87790833Y-68127619D01*
X88028928Y-68127619D01*
X88124166Y-68175238D01*
X88171785Y-68222857D01*
X88219404Y-68318095D01*
X88219404Y-68413333D01*
X88171785Y-68508571D01*
X88124166Y-68556190D01*
X88028928Y-68603809D01*
X87838452Y-68651428D01*
X87743214Y-68699047D01*
X87695595Y-68746666D01*
X87647976Y-68841904D01*
X87647976Y-68937142D01*
X87695595Y-69032380D01*
X87743214Y-69080000D01*
X87838452Y-69127619D01*
X88076547Y-69127619D01*
X88219404Y-69080000D01*
X87171785Y-75747619D02*
X86695595Y-75747619D01*
X86695595Y-76747619D01*
X87505119Y-76271428D02*
X87838452Y-76271428D01*
X87981309Y-75747619D02*
X87505119Y-75747619D01*
X87505119Y-76747619D01*
X87981309Y-76747619D01*
X88409880Y-75747619D02*
X88409880Y-76747619D01*
X88647976Y-76747619D01*
X88790833Y-76700000D01*
X88886071Y-76604761D01*
X88933690Y-76509523D01*
X88981309Y-76319047D01*
X88981309Y-76176190D01*
X88933690Y-75985714D01*
X88886071Y-75890476D01*
X88790833Y-75795238D01*
X88647976Y-75747619D01*
X88409880Y-75747619D01*
X86392738Y-94527619D02*
X86726071Y-93527619D01*
X87059404Y-94527619D01*
X87964166Y-93622857D02*
X87916547Y-93575238D01*
X87773690Y-93527619D01*
X87678452Y-93527619D01*
X87535595Y-93575238D01*
X87440357Y-93670476D01*
X87392738Y-93765714D01*
X87345119Y-93956190D01*
X87345119Y-94099047D01*
X87392738Y-94289523D01*
X87440357Y-94384761D01*
X87535595Y-94480000D01*
X87678452Y-94527619D01*
X87773690Y-94527619D01*
X87916547Y-94480000D01*
X87964166Y-94432380D01*
X88964166Y-93622857D02*
X88916547Y-93575238D01*
X88773690Y-93527619D01*
X88678452Y-93527619D01*
X88535595Y-93575238D01*
X88440357Y-93670476D01*
X88392738Y-93765714D01*
X88345119Y-93956190D01*
X88345119Y-94099047D01*
X88392738Y-94289523D01*
X88440357Y-94384761D01*
X88535595Y-94480000D01*
X88678452Y-94527619D01*
X88773690Y-94527619D01*
X88916547Y-94480000D01*
X88964166Y-94432380D01*
X87267023Y-85907619D02*
X86933690Y-86383809D01*
X86695595Y-85907619D02*
X86695595Y-86907619D01*
X87076547Y-86907619D01*
X87171785Y-86860000D01*
X87219404Y-86812380D01*
X87267023Y-86717142D01*
X87267023Y-86574285D01*
X87219404Y-86479047D01*
X87171785Y-86431428D01*
X87076547Y-86383809D01*
X86695595Y-86383809D01*
X87647976Y-85955238D02*
X87790833Y-85907619D01*
X88028928Y-85907619D01*
X88124166Y-85955238D01*
X88171785Y-86002857D01*
X88219404Y-86098095D01*
X88219404Y-86193333D01*
X88171785Y-86288571D01*
X88124166Y-86336190D01*
X88028928Y-86383809D01*
X87838452Y-86431428D01*
X87743214Y-86479047D01*
X87695595Y-86526666D01*
X87647976Y-86621904D01*
X87647976Y-86717142D01*
X87695595Y-86812380D01*
X87743214Y-86860000D01*
X87838452Y-86907619D01*
X88076547Y-86907619D01*
X88219404Y-86860000D01*
X88505119Y-86907619D02*
X89076547Y-86907619D01*
X88790833Y-85907619D02*
X88790833Y-86907619D01*
X87219404Y-91940000D02*
X87124166Y-91987619D01*
X86981309Y-91987619D01*
X86838452Y-91940000D01*
X86743214Y-91844761D01*
X86695595Y-91749523D01*
X86647976Y-91559047D01*
X86647976Y-91416190D01*
X86695595Y-91225714D01*
X86743214Y-91130476D01*
X86838452Y-91035238D01*
X86981309Y-90987619D01*
X87076547Y-90987619D01*
X87219404Y-91035238D01*
X87267023Y-91082857D01*
X87267023Y-91416190D01*
X87076547Y-91416190D01*
X87695595Y-90987619D02*
X87695595Y-91987619D01*
X88267023Y-90987619D01*
X88267023Y-91987619D01*
X88743214Y-90987619D02*
X88743214Y-91987619D01*
X88981309Y-91987619D01*
X89124166Y-91940000D01*
X89219404Y-91844761D01*
X89267023Y-91749523D01*
X89314642Y-91559047D01*
X89314642Y-91416190D01*
X89267023Y-91225714D01*
X89219404Y-91130476D01*
X89124166Y-91035238D01*
X88981309Y-90987619D01*
X88743214Y-90987619D01*
X87267023Y-88542857D02*
X87219404Y-88495238D01*
X87076547Y-88447619D01*
X86981309Y-88447619D01*
X86838452Y-88495238D01*
X86743214Y-88590476D01*
X86695595Y-88685714D01*
X86647976Y-88876190D01*
X86647976Y-89019047D01*
X86695595Y-89209523D01*
X86743214Y-89304761D01*
X86838452Y-89400000D01*
X86981309Y-89447619D01*
X87076547Y-89447619D01*
X87219404Y-89400000D01*
X87267023Y-89352380D01*
X87647976Y-88495238D02*
X87790833Y-88447619D01*
X88028928Y-88447619D01*
X88124166Y-88495238D01*
X88171785Y-88542857D01*
X88219404Y-88638095D01*
X88219404Y-88733333D01*
X88171785Y-88828571D01*
X88124166Y-88876190D01*
X88028928Y-88923809D01*
X87838452Y-88971428D01*
X87743214Y-89019047D01*
X87695595Y-89066666D01*
X87647976Y-89161904D01*
X87647976Y-89257142D01*
X87695595Y-89352380D01*
X87743214Y-89400000D01*
X87838452Y-89447619D01*
X88076547Y-89447619D01*
X88219404Y-89400000D01*
X86695595Y-80827619D02*
X86695595Y-81827619D01*
X87028928Y-81113333D01*
X87362261Y-81827619D01*
X87362261Y-80827619D01*
X88028928Y-81827619D02*
X88219404Y-81827619D01*
X88314642Y-81780000D01*
X88409880Y-81684761D01*
X88457500Y-81494285D01*
X88457500Y-81160952D01*
X88409880Y-80970476D01*
X88314642Y-80875238D01*
X88219404Y-80827619D01*
X88028928Y-80827619D01*
X87933690Y-80875238D01*
X87838452Y-80970476D01*
X87790833Y-81160952D01*
X87790833Y-81494285D01*
X87838452Y-81684761D01*
X87933690Y-81780000D01*
X88028928Y-81827619D01*
X88838452Y-80875238D02*
X88981309Y-80827619D01*
X89219404Y-80827619D01*
X89314642Y-80875238D01*
X89362261Y-80922857D01*
X89409880Y-81018095D01*
X89409880Y-81113333D01*
X89362261Y-81208571D01*
X89314642Y-81256190D01*
X89219404Y-81303809D01*
X89028928Y-81351428D01*
X88933690Y-81399047D01*
X88886071Y-81446666D01*
X88838452Y-81541904D01*
X88838452Y-81637142D01*
X88886071Y-81732380D01*
X88933690Y-81780000D01*
X89028928Y-81827619D01*
X89267023Y-81827619D01*
X89409880Y-81780000D01*
X89838452Y-80827619D02*
X89838452Y-81827619D01*
X87267023Y-78382857D02*
X87219404Y-78335238D01*
X87076547Y-78287619D01*
X86981309Y-78287619D01*
X86838452Y-78335238D01*
X86743214Y-78430476D01*
X86695595Y-78525714D01*
X86647976Y-78716190D01*
X86647976Y-78859047D01*
X86695595Y-79049523D01*
X86743214Y-79144761D01*
X86838452Y-79240000D01*
X86981309Y-79287619D01*
X87076547Y-79287619D01*
X87219404Y-79240000D01*
X87267023Y-79192380D01*
X88171785Y-78287619D02*
X87695595Y-78287619D01*
X87695595Y-79287619D01*
X88505119Y-78287619D02*
X88505119Y-79287619D01*
X89076547Y-78287619D02*
X88647976Y-78859047D01*
X89076547Y-79287619D02*
X88505119Y-78716190D01*
X86695595Y-73207619D02*
X86695595Y-74207619D01*
X87028928Y-73493333D01*
X87362261Y-74207619D01*
X87362261Y-73207619D01*
X87838452Y-73207619D02*
X87838452Y-74207619D01*
X88267023Y-73255238D02*
X88409880Y-73207619D01*
X88647976Y-73207619D01*
X88743214Y-73255238D01*
X88790833Y-73302857D01*
X88838452Y-73398095D01*
X88838452Y-73493333D01*
X88790833Y-73588571D01*
X88743214Y-73636190D01*
X88647976Y-73683809D01*
X88457500Y-73731428D01*
X88362261Y-73779047D01*
X88314642Y-73826666D01*
X88267023Y-73921904D01*
X88267023Y-74017142D01*
X88314642Y-74112380D01*
X88362261Y-74160000D01*
X88457500Y-74207619D01*
X88695595Y-74207619D01*
X88838452Y-74160000D01*
X89457500Y-74207619D02*
X89647976Y-74207619D01*
X89743214Y-74160000D01*
X89838452Y-74064761D01*
X89886071Y-73874285D01*
X89886071Y-73540952D01*
X89838452Y-73350476D01*
X89743214Y-73255238D01*
X89647976Y-73207619D01*
X89457500Y-73207619D01*
X89362261Y-73255238D01*
X89267023Y-73350476D01*
X89219404Y-73540952D01*
X89219404Y-73874285D01*
X89267023Y-74064761D01*
X89362261Y-74160000D01*
X89457500Y-74207619D01*
X86695595Y-60507619D02*
X86695595Y-61507619D01*
X87743214Y-60507619D02*
X87409880Y-60983809D01*
X87171785Y-60507619D02*
X87171785Y-61507619D01*
X87552738Y-61507619D01*
X87647976Y-61460000D01*
X87695595Y-61412380D01*
X87743214Y-61317142D01*
X87743214Y-61174285D01*
X87695595Y-61079047D01*
X87647976Y-61031428D01*
X87552738Y-60983809D01*
X87171785Y-60983809D01*
X88838452Y-60412380D02*
X88743214Y-60460000D01*
X88647976Y-60555238D01*
X88505119Y-60698095D01*
X88409880Y-60745714D01*
X88314642Y-60745714D01*
X88362261Y-60507619D02*
X88267023Y-60555238D01*
X88171785Y-60650476D01*
X88124166Y-60840952D01*
X88124166Y-61174285D01*
X88171785Y-61364761D01*
X88267023Y-61460000D01*
X88362261Y-61507619D01*
X88552738Y-61507619D01*
X88647976Y-61460000D01*
X88743214Y-61364761D01*
X88790833Y-61174285D01*
X88790833Y-60840952D01*
X88743214Y-60650476D01*
X88647976Y-60555238D01*
X88552738Y-60507619D01*
X88362261Y-60507619D01*
D10*
X85090000Y-95310000D02*
X86200000Y-95310000D01*
X86200000Y-95310000D02*
X86200000Y-93980000D01*
X75000000Y-95310000D02*
X75000000Y-59630000D01*
X75000000Y-59630000D02*
X83630000Y-59630000D01*
X83630000Y-95310000D02*
X83630000Y-59630000D01*
X75000000Y-95310000D02*
X83630000Y-95310000D01*
X75000000Y-62230000D02*
X83630000Y-62230000D01*
X75000000Y-64770000D02*
X83630000Y-64770000D01*
X75000000Y-67310000D02*
X83630000Y-67310000D01*
X75000000Y-69850000D02*
X83630000Y-69850000D01*
X75000000Y-72390000D02*
X83630000Y-72390000D01*
X75000000Y-74930000D02*
X83630000Y-74930000D01*
X75000000Y-77470000D02*
X83630000Y-77470000D01*
X75000000Y-80010000D02*
X83630000Y-80010000D01*
X75000000Y-82550000D02*
X83630000Y-82550000D01*
X75000000Y-85090000D02*
X83630000Y-85090000D01*
X75000000Y-87630000D02*
X83630000Y-87630000D01*
X75000000Y-90170000D02*
X83630000Y-90170000D01*
X75000000Y-92710000D02*
X83630000Y-92710000D01*
X83630000Y-60600000D02*
X84040000Y-60600000D01*
X83630000Y-61320000D02*
X84040000Y-61320000D01*
X83630000Y-63140000D02*
X84040000Y-63140000D01*
X83630000Y-63860000D02*
X84040000Y-63860000D01*
X83630000Y-65680000D02*
X84040000Y-65680000D01*
X83630000Y-66400000D02*
X84040000Y-66400000D01*
X83630000Y-68220000D02*
X84040000Y-68220000D01*
X83630000Y-68940000D02*
X84040000Y-68940000D01*
X83630000Y-70760000D02*
X84040000Y-70760000D01*
X83630000Y-71480000D02*
X84040000Y-71480000D01*
X83630000Y-73300000D02*
X84040000Y-73300000D01*
X83630000Y-74020000D02*
X84040000Y-74020000D01*
X83630000Y-75840000D02*
X84040000Y-75840000D01*
X83630000Y-76560000D02*
X84040000Y-76560000D01*
X83630000Y-78380000D02*
X84040000Y-78380000D01*
X83630000Y-79100000D02*
X84040000Y-79100000D01*
X83630000Y-80920000D02*
X84040000Y-80920000D01*
X83630000Y-81640000D02*
X84040000Y-81640000D01*
X83630000Y-83460000D02*
X84040000Y-83460000D01*
X83630000Y-84180000D02*
X84040000Y-84180000D01*
X83630000Y-86000000D02*
X84040000Y-86000000D01*
X83630000Y-86720000D02*
X84040000Y-86720000D01*
X83630000Y-88540000D02*
X84040000Y-88540000D01*
X83630000Y-89260000D02*
X84040000Y-89260000D01*
X83630000Y-91080000D02*
X84040000Y-91080000D01*
X83630000Y-91800000D02*
X84040000Y-91800000D01*
X83630000Y-93620000D02*
X83980000Y-93620000D01*
X83630000Y-94340000D02*
X83980000Y-94340000D01*
X75000000Y-92828100D02*
X83630000Y-92828100D01*
X75000000Y-92946195D02*
X83630000Y-92946195D01*
X75000000Y-93064290D02*
X83630000Y-93064290D01*
X75000000Y-93182385D02*
X83630000Y-93182385D01*
X75000000Y-93300480D02*
X83630000Y-93300480D01*
X75000000Y-93418575D02*
X83630000Y-93418575D01*
X75000000Y-93536670D02*
X83630000Y-93536670D01*
X75000000Y-93654765D02*
X83630000Y-93654765D01*
X75000000Y-93772860D02*
X83630000Y-93772860D01*
X75000000Y-93890955D02*
X83630000Y-93890955D01*
X75000000Y-94009050D02*
X83630000Y-94009050D01*
X75000000Y-94127145D02*
X83630000Y-94127145D01*
X75000000Y-94245240D02*
X83630000Y-94245240D01*
X75000000Y-94363335D02*
X83630000Y-94363335D01*
X75000000Y-94481430D02*
X83630000Y-94481430D01*
X75000000Y-94599525D02*
X83630000Y-94599525D01*
X75000000Y-94717620D02*
X83630000Y-94717620D01*
X75000000Y-94835715D02*
X83630000Y-94835715D01*
X75000000Y-94953810D02*
X83630000Y-94953810D01*
X75000000Y-95071905D02*
X83630000Y-95071905D01*
X75000000Y-95190000D02*
X83630000Y-95190000D01*
%LPC*%
D12*
X115062000Y-62230000D03*
X112522000Y-62230000D03*
X109982000Y-62230000D03*
X107442000Y-62230000D03*
X104902000Y-62230000D03*
X102362000Y-62230000D03*
X99822000Y-62230000D03*
D13*
X97282000Y-62230000D03*
D12*
X115062000Y-92710000D03*
X112522000Y-92710000D03*
X109982000Y-92710000D03*
X107442000Y-92710000D03*
X104902000Y-92710000D03*
X102362000Y-92710000D03*
X99822000Y-92710000D03*
D13*
X97282000Y-92710000D03*
D14*
X92456000Y-86995000D03*
X92456000Y-67945000D03*
D15*
X97282000Y-66040000D03*
X99822000Y-66040000D03*
X102362000Y-66040000D03*
X104902000Y-66040000D03*
X107442000Y-66040000D03*
X109982000Y-66040000D03*
X112522000Y-66040000D03*
X115062000Y-66040000D03*
X115062000Y-88900000D03*
X112522000Y-88900000D03*
X109982000Y-88900000D03*
X107442000Y-88900000D03*
X104902000Y-88900000D03*
X102362000Y-88900000D03*
D16*
X97282000Y-88900000D03*
D15*
X99822000Y-88900000D03*
D12*
X85090000Y-60960000D03*
X85090000Y-63500000D03*
X85090000Y-66040000D03*
X85090000Y-68580000D03*
X85090000Y-71120000D03*
X85090000Y-73660000D03*
X85090000Y-76200000D03*
X85090000Y-78740000D03*
X85090000Y-81280000D03*
X85090000Y-83820000D03*
X85090000Y-86360000D03*
X85090000Y-88900000D03*
X85090000Y-91440000D03*
D13*
X85090000Y-93980000D03*
M02*
