G04 #@! TF.GenerationSoftware,KiCad,Pcbnew,(5.1.10)-1*
G04 #@! TF.CreationDate,2021-09-27T00:24:43+02:00*
G04 #@! TF.ProjectId,ili9341,696c6939-3334-4312-9e6b-696361645f70,rev?*
G04 #@! TF.SameCoordinates,Original*
G04 #@! TF.FileFunction,Legend,Top*
G04 #@! TF.FilePolarity,Positive*
%FSLAX46Y46*%
G04 Gerber Fmt 4.6, Leading zero omitted, Abs format (unit mm)*
G04 Created by KiCad (PCBNEW (5.1.10)-1) date 2021-09-27 00:24:43*
%MOMM*%
%LPD*%
G01*
G04 APERTURE LIST*
%ADD10C,0.150000*%
%ADD11C,0.120000*%
%ADD12O,1.700000X1.700000*%
%ADD13R,1.700000X1.700000*%
%ADD14C,5.600000*%
%ADD15O,1.600000X2.000000*%
%ADD16R,2.000000X2.000000*%
G04 APERTURE END LIST*
D10*
X105037476Y-80636666D02*
X104989857Y-80731904D01*
X104989857Y-80922380D01*
X105037476Y-81017619D01*
X105132714Y-81112857D01*
X105227952Y-81160476D01*
X105418428Y-81160476D01*
X105513666Y-81112857D01*
X105608904Y-81017619D01*
X105656523Y-80922380D01*
X105656523Y-80731904D01*
X105608904Y-80636666D01*
X104656523Y-80827142D02*
X104704142Y-81065238D01*
X104847000Y-81303333D01*
X105085095Y-81446190D01*
X105323190Y-81493809D01*
X105561285Y-81446190D01*
X105799380Y-81303333D01*
X105942238Y-81065238D01*
X105989857Y-80827142D01*
X105942238Y-80589047D01*
X105799380Y-80350952D01*
X105561285Y-80208095D01*
X105323190Y-80160476D01*
X105085095Y-80208095D01*
X104847000Y-80350952D01*
X104704142Y-80589047D01*
X104656523Y-80827142D01*
X105275571Y-78636666D02*
X105323190Y-78493809D01*
X105370809Y-78446190D01*
X105466047Y-78398571D01*
X105608904Y-78398571D01*
X105704142Y-78446190D01*
X105751761Y-78493809D01*
X105799380Y-78589047D01*
X105799380Y-78970000D01*
X104799380Y-78970000D01*
X104799380Y-78636666D01*
X104847000Y-78541428D01*
X104894619Y-78493809D01*
X104989857Y-78446190D01*
X105085095Y-78446190D01*
X105180333Y-78493809D01*
X105227952Y-78541428D01*
X105275571Y-78636666D01*
X105275571Y-78970000D01*
X105799380Y-77827142D02*
X105751761Y-77922380D01*
X105704142Y-77970000D01*
X105608904Y-78017619D01*
X105323190Y-78017619D01*
X105227952Y-77970000D01*
X105180333Y-77922380D01*
X105132714Y-77827142D01*
X105132714Y-77684285D01*
X105180333Y-77589047D01*
X105227952Y-77541428D01*
X105323190Y-77493809D01*
X105608904Y-77493809D01*
X105704142Y-77541428D01*
X105751761Y-77589047D01*
X105799380Y-77684285D01*
X105799380Y-77827142D01*
X105799380Y-76922380D02*
X105751761Y-77017619D01*
X105656523Y-77065238D01*
X104799380Y-77065238D01*
X105132714Y-76112857D02*
X105799380Y-76112857D01*
X105132714Y-76541428D02*
X105656523Y-76541428D01*
X105751761Y-76493809D01*
X105799380Y-76398571D01*
X105799380Y-76255714D01*
X105751761Y-76160476D01*
X105704142Y-76112857D01*
X105799380Y-75636666D02*
X104799380Y-75636666D01*
X105418428Y-75541428D02*
X105799380Y-75255714D01*
X105132714Y-75255714D02*
X105513666Y-75636666D01*
X105799380Y-74398571D02*
X105275571Y-74398571D01*
X105180333Y-74446190D01*
X105132714Y-74541428D01*
X105132714Y-74731904D01*
X105180333Y-74827142D01*
X105751761Y-74398571D02*
X105799380Y-74493809D01*
X105799380Y-74731904D01*
X105751761Y-74827142D01*
X105656523Y-74874761D01*
X105561285Y-74874761D01*
X105466047Y-74827142D01*
X105418428Y-74731904D01*
X105418428Y-74493809D01*
X105370809Y-74398571D01*
X105132714Y-73922380D02*
X105799380Y-73922380D01*
X105227952Y-73922380D02*
X105180333Y-73874761D01*
X105132714Y-73779523D01*
X105132714Y-73636666D01*
X105180333Y-73541428D01*
X105275571Y-73493809D01*
X105799380Y-73493809D01*
X106782714Y-82755714D02*
X107449380Y-82517619D01*
X106782714Y-82279523D01*
X106544619Y-81946190D02*
X106497000Y-81898571D01*
X106449380Y-81803333D01*
X106449380Y-81565238D01*
X106497000Y-81470000D01*
X106544619Y-81422380D01*
X106639857Y-81374761D01*
X106735095Y-81374761D01*
X106877952Y-81422380D01*
X107449380Y-81993809D01*
X107449380Y-81374761D01*
X106449380Y-80755714D02*
X106449380Y-80660476D01*
X106497000Y-80565238D01*
X106544619Y-80517619D01*
X106639857Y-80470000D01*
X106830333Y-80422380D01*
X107068428Y-80422380D01*
X107258904Y-80470000D01*
X107354142Y-80517619D01*
X107401761Y-80565238D01*
X107449380Y-80660476D01*
X107449380Y-80755714D01*
X107401761Y-80850952D01*
X107354142Y-80898571D01*
X107258904Y-80946190D01*
X107068428Y-80993809D01*
X106830333Y-80993809D01*
X106639857Y-80946190D01*
X106544619Y-80898571D01*
X106497000Y-80850952D01*
X106449380Y-80755714D01*
X106544619Y-80041428D02*
X106497000Y-79993809D01*
X106449380Y-79898571D01*
X106449380Y-79660476D01*
X106497000Y-79565238D01*
X106544619Y-79517619D01*
X106639857Y-79470000D01*
X106735095Y-79470000D01*
X106877952Y-79517619D01*
X107449380Y-80089047D01*
X107449380Y-79470000D01*
X107449380Y-78517619D02*
X107449380Y-79089047D01*
X107449380Y-78803333D02*
X106449380Y-78803333D01*
X106592238Y-78898571D01*
X106687476Y-78993809D01*
X106735095Y-79089047D01*
X107068428Y-78089047D02*
X107068428Y-77327142D01*
X106449380Y-76660476D02*
X106449380Y-76565238D01*
X106497000Y-76470000D01*
X106544619Y-76422380D01*
X106639857Y-76374761D01*
X106830333Y-76327142D01*
X107068428Y-76327142D01*
X107258904Y-76374761D01*
X107354142Y-76422380D01*
X107401761Y-76470000D01*
X107449380Y-76565238D01*
X107449380Y-76660476D01*
X107401761Y-76755714D01*
X107354142Y-76803333D01*
X107258904Y-76850952D01*
X107068428Y-76898571D01*
X106830333Y-76898571D01*
X106639857Y-76850952D01*
X106544619Y-76803333D01*
X106497000Y-76755714D01*
X106449380Y-76660476D01*
X107449380Y-75850952D02*
X107449380Y-75660476D01*
X107401761Y-75565238D01*
X107354142Y-75517619D01*
X107211285Y-75422380D01*
X107020809Y-75374761D01*
X106639857Y-75374761D01*
X106544619Y-75422380D01*
X106497000Y-75470000D01*
X106449380Y-75565238D01*
X106449380Y-75755714D01*
X106497000Y-75850952D01*
X106544619Y-75898571D01*
X106639857Y-75946190D01*
X106877952Y-75946190D01*
X106973190Y-75898571D01*
X107020809Y-75850952D01*
X107068428Y-75755714D01*
X107068428Y-75565238D01*
X107020809Y-75470000D01*
X106973190Y-75422380D01*
X106877952Y-75374761D01*
X107068428Y-74946190D02*
X107068428Y-74184285D01*
X106544619Y-73755714D02*
X106497000Y-73708095D01*
X106449380Y-73612857D01*
X106449380Y-73374761D01*
X106497000Y-73279523D01*
X106544619Y-73231904D01*
X106639857Y-73184285D01*
X106735095Y-73184285D01*
X106877952Y-73231904D01*
X107449380Y-73803333D01*
X107449380Y-73184285D01*
X106449380Y-72850952D02*
X106449380Y-72184285D01*
X107449380Y-72612857D01*
X91908380Y-82089047D02*
X92622666Y-82089047D01*
X92765523Y-82136666D01*
X92860761Y-82231904D01*
X92908380Y-82374761D01*
X92908380Y-82470000D01*
X92908380Y-81136666D02*
X92908380Y-81612857D01*
X91908380Y-81612857D01*
X92813142Y-80231904D02*
X92860761Y-80279523D01*
X92908380Y-80422380D01*
X92908380Y-80517619D01*
X92860761Y-80660476D01*
X92765523Y-80755714D01*
X92670285Y-80803333D01*
X92479809Y-80850952D01*
X92336952Y-80850952D01*
X92146476Y-80803333D01*
X92051238Y-80755714D01*
X91956000Y-80660476D01*
X91908380Y-80517619D01*
X91908380Y-80422380D01*
X91956000Y-80279523D01*
X92003619Y-80231904D01*
X91908380Y-79517619D02*
X92622666Y-79517619D01*
X92765523Y-79565238D01*
X92860761Y-79660476D01*
X92908380Y-79803333D01*
X92908380Y-79898571D01*
X92908380Y-78565238D02*
X92908380Y-79041428D01*
X91908380Y-79041428D01*
X92813142Y-77660476D02*
X92860761Y-77708095D01*
X92908380Y-77850952D01*
X92908380Y-77946190D01*
X92860761Y-78089047D01*
X92765523Y-78184285D01*
X92670285Y-78231904D01*
X92479809Y-78279523D01*
X92336952Y-78279523D01*
X92146476Y-78231904D01*
X92051238Y-78184285D01*
X91956000Y-78089047D01*
X91908380Y-77946190D01*
X91908380Y-77850952D01*
X91956000Y-77708095D01*
X92003619Y-77660476D01*
X91908380Y-76946190D02*
X92622666Y-76946190D01*
X92765523Y-76993809D01*
X92860761Y-77089047D01*
X92908380Y-77231904D01*
X92908380Y-77327142D01*
X92908380Y-75993809D02*
X92908380Y-76470000D01*
X91908380Y-76470000D01*
X92813142Y-75089047D02*
X92860761Y-75136666D01*
X92908380Y-75279523D01*
X92908380Y-75374761D01*
X92860761Y-75517619D01*
X92765523Y-75612857D01*
X92670285Y-75660476D01*
X92479809Y-75708095D01*
X92336952Y-75708095D01*
X92146476Y-75660476D01*
X92051238Y-75612857D01*
X91956000Y-75517619D01*
X91908380Y-75374761D01*
X91908380Y-75279523D01*
X91956000Y-75136666D01*
X92003619Y-75089047D01*
X91908380Y-74374761D02*
X92622666Y-74374761D01*
X92765523Y-74422380D01*
X92860761Y-74517619D01*
X92908380Y-74660476D01*
X92908380Y-74755714D01*
X92908380Y-73422380D02*
X92908380Y-73898571D01*
X91908380Y-73898571D01*
X92813142Y-72517619D02*
X92860761Y-72565238D01*
X92908380Y-72708095D01*
X92908380Y-72803333D01*
X92860761Y-72946190D01*
X92765523Y-73041428D01*
X92670285Y-73089047D01*
X92479809Y-73136666D01*
X92336952Y-73136666D01*
X92146476Y-73089047D01*
X92051238Y-73041428D01*
X91956000Y-72946190D01*
X91908380Y-72803333D01*
X91908380Y-72708095D01*
X91956000Y-72565238D01*
X92003619Y-72517619D01*
X115252476Y-60491619D02*
X115728666Y-60491619D01*
X115776285Y-60015428D01*
X115728666Y-60063047D01*
X115633428Y-60110666D01*
X115395333Y-60110666D01*
X115300095Y-60063047D01*
X115252476Y-60015428D01*
X115204857Y-59920190D01*
X115204857Y-59682095D01*
X115252476Y-59586857D01*
X115300095Y-59539238D01*
X115395333Y-59491619D01*
X115633428Y-59491619D01*
X115728666Y-59539238D01*
X115776285Y-59586857D01*
X114919142Y-60491619D02*
X114585809Y-59491619D01*
X114252476Y-60491619D01*
X113283904Y-60444000D02*
X113379142Y-60491619D01*
X113522000Y-60491619D01*
X113664857Y-60444000D01*
X113760095Y-60348761D01*
X113807714Y-60253523D01*
X113855333Y-60063047D01*
X113855333Y-59920190D01*
X113807714Y-59729714D01*
X113760095Y-59634476D01*
X113664857Y-59539238D01*
X113522000Y-59491619D01*
X113426761Y-59491619D01*
X113283904Y-59539238D01*
X113236285Y-59586857D01*
X113236285Y-59920190D01*
X113426761Y-59920190D01*
X112807714Y-59491619D02*
X112807714Y-60491619D01*
X112236285Y-59491619D01*
X112236285Y-60491619D01*
X111760095Y-59491619D02*
X111760095Y-60491619D01*
X111522000Y-60491619D01*
X111379142Y-60444000D01*
X111283904Y-60348761D01*
X111236285Y-60253523D01*
X111188666Y-60063047D01*
X111188666Y-59920190D01*
X111236285Y-59729714D01*
X111283904Y-59634476D01*
X111379142Y-59539238D01*
X111522000Y-59491619D01*
X111760095Y-59491619D01*
X110720095Y-59491619D02*
X110720095Y-60491619D01*
X110482000Y-60491619D01*
X110339142Y-60444000D01*
X110243904Y-60348761D01*
X110196285Y-60253523D01*
X110148666Y-60063047D01*
X110148666Y-59920190D01*
X110196285Y-59729714D01*
X110243904Y-59634476D01*
X110339142Y-59539238D01*
X110482000Y-59491619D01*
X110720095Y-59491619D01*
X109291523Y-60158285D02*
X109291523Y-59491619D01*
X109529619Y-60539238D02*
X109767714Y-59824952D01*
X109148666Y-59824952D01*
X108180095Y-59491619D02*
X108180095Y-60491619D01*
X107942000Y-60491619D01*
X107799142Y-60444000D01*
X107703904Y-60348761D01*
X107656285Y-60253523D01*
X107608666Y-60063047D01*
X107608666Y-59920190D01*
X107656285Y-59729714D01*
X107703904Y-59634476D01*
X107799142Y-59539238D01*
X107942000Y-59491619D01*
X108180095Y-59491619D01*
X107275333Y-60491619D02*
X106656285Y-60491619D01*
X106989619Y-60110666D01*
X106846761Y-60110666D01*
X106751523Y-60063047D01*
X106703904Y-60015428D01*
X106656285Y-59920190D01*
X106656285Y-59682095D01*
X106703904Y-59586857D01*
X106751523Y-59539238D01*
X106846761Y-59491619D01*
X107132476Y-59491619D01*
X107227714Y-59539238D01*
X107275333Y-59586857D01*
X105640095Y-59491619D02*
X105640095Y-60491619D01*
X105402000Y-60491619D01*
X105259142Y-60444000D01*
X105163904Y-60348761D01*
X105116285Y-60253523D01*
X105068666Y-60063047D01*
X105068666Y-59920190D01*
X105116285Y-59729714D01*
X105163904Y-59634476D01*
X105259142Y-59539238D01*
X105402000Y-59491619D01*
X105640095Y-59491619D01*
X104687714Y-60396380D02*
X104640095Y-60444000D01*
X104544857Y-60491619D01*
X104306761Y-60491619D01*
X104211523Y-60444000D01*
X104163904Y-60396380D01*
X104116285Y-60301142D01*
X104116285Y-60205904D01*
X104163904Y-60063047D01*
X104735333Y-59491619D01*
X104116285Y-59491619D01*
X103100095Y-59491619D02*
X103100095Y-60491619D01*
X102862000Y-60491619D01*
X102719142Y-60444000D01*
X102623904Y-60348761D01*
X102576285Y-60253523D01*
X102528666Y-60063047D01*
X102528666Y-59920190D01*
X102576285Y-59729714D01*
X102623904Y-59634476D01*
X102719142Y-59539238D01*
X102862000Y-59491619D01*
X103100095Y-59491619D01*
X101576285Y-59491619D02*
X102147714Y-59491619D01*
X101862000Y-59491619D02*
X101862000Y-60491619D01*
X101957238Y-60348761D01*
X102052476Y-60253523D01*
X102147714Y-60205904D01*
X99988666Y-59491619D02*
X100322000Y-59967809D01*
X100560095Y-59491619D02*
X100560095Y-60491619D01*
X100179142Y-60491619D01*
X100083904Y-60444000D01*
X100036285Y-60396380D01*
X99988666Y-60301142D01*
X99988666Y-60158285D01*
X100036285Y-60063047D01*
X100083904Y-60015428D01*
X100179142Y-59967809D01*
X100560095Y-59967809D01*
X99655333Y-60491619D02*
X98988666Y-59491619D01*
X98988666Y-60491619D02*
X99655333Y-59491619D01*
X98043904Y-60491619D02*
X97472476Y-60491619D01*
X97758190Y-59491619D02*
X97758190Y-60491619D01*
X97234380Y-60491619D02*
X96567714Y-59491619D01*
X96567714Y-60491619D02*
X97234380Y-59491619D01*
X113823904Y-94194380D02*
X114442952Y-94194380D01*
X114109619Y-94575333D01*
X114252476Y-94575333D01*
X114347714Y-94622952D01*
X114395333Y-94670571D01*
X114442952Y-94765809D01*
X114442952Y-95003904D01*
X114395333Y-95099142D01*
X114347714Y-95146761D01*
X114252476Y-95194380D01*
X113966761Y-95194380D01*
X113871523Y-95146761D01*
X113823904Y-95099142D01*
X114728666Y-94194380D02*
X115062000Y-95194380D01*
X115395333Y-94194380D01*
X115633428Y-94194380D02*
X116252476Y-94194380D01*
X115919142Y-94575333D01*
X116062000Y-94575333D01*
X116157238Y-94622952D01*
X116204857Y-94670571D01*
X116252476Y-94765809D01*
X116252476Y-95003904D01*
X116204857Y-95099142D01*
X116157238Y-95146761D01*
X116062000Y-95194380D01*
X115776285Y-95194380D01*
X115681047Y-95146761D01*
X115633428Y-95099142D01*
X111783904Y-95194380D02*
X111783904Y-94194380D01*
X112022000Y-94194380D01*
X112164857Y-94242000D01*
X112260095Y-94337238D01*
X112307714Y-94432476D01*
X112355333Y-94622952D01*
X112355333Y-94765809D01*
X112307714Y-94956285D01*
X112260095Y-95051523D01*
X112164857Y-95146761D01*
X112022000Y-95194380D01*
X111783904Y-95194380D01*
X112926761Y-94622952D02*
X112831523Y-94575333D01*
X112783904Y-94527714D01*
X112736285Y-94432476D01*
X112736285Y-94384857D01*
X112783904Y-94289619D01*
X112831523Y-94242000D01*
X112926761Y-94194380D01*
X113117238Y-94194380D01*
X113212476Y-94242000D01*
X113260095Y-94289619D01*
X113307714Y-94384857D01*
X113307714Y-94432476D01*
X113260095Y-94527714D01*
X113212476Y-94575333D01*
X113117238Y-94622952D01*
X112926761Y-94622952D01*
X112831523Y-94670571D01*
X112783904Y-94718190D01*
X112736285Y-94813428D01*
X112736285Y-95003904D01*
X112783904Y-95099142D01*
X112831523Y-95146761D01*
X112926761Y-95194380D01*
X113117238Y-95194380D01*
X113212476Y-95146761D01*
X113260095Y-95099142D01*
X113307714Y-95003904D01*
X113307714Y-94813428D01*
X113260095Y-94718190D01*
X113212476Y-94670571D01*
X113117238Y-94622952D01*
X109243904Y-95194380D02*
X109243904Y-94194380D01*
X109482000Y-94194380D01*
X109624857Y-94242000D01*
X109720095Y-94337238D01*
X109767714Y-94432476D01*
X109815333Y-94622952D01*
X109815333Y-94765809D01*
X109767714Y-94956285D01*
X109720095Y-95051523D01*
X109624857Y-95146761D01*
X109482000Y-95194380D01*
X109243904Y-95194380D01*
X110148666Y-94194380D02*
X110815333Y-94194380D01*
X110386761Y-95194380D01*
X106703904Y-95194380D02*
X106703904Y-94194380D01*
X106942000Y-94194380D01*
X107084857Y-94242000D01*
X107180095Y-94337238D01*
X107227714Y-94432476D01*
X107275333Y-94622952D01*
X107275333Y-94765809D01*
X107227714Y-94956285D01*
X107180095Y-95051523D01*
X107084857Y-95146761D01*
X106942000Y-95194380D01*
X106703904Y-95194380D01*
X108132476Y-94194380D02*
X107942000Y-94194380D01*
X107846761Y-94242000D01*
X107799142Y-94289619D01*
X107703904Y-94432476D01*
X107656285Y-94622952D01*
X107656285Y-95003904D01*
X107703904Y-95099142D01*
X107751523Y-95146761D01*
X107846761Y-95194380D01*
X108037238Y-95194380D01*
X108132476Y-95146761D01*
X108180095Y-95099142D01*
X108227714Y-95003904D01*
X108227714Y-94765809D01*
X108180095Y-94670571D01*
X108132476Y-94622952D01*
X108037238Y-94575333D01*
X107846761Y-94575333D01*
X107751523Y-94622952D01*
X107703904Y-94670571D01*
X107656285Y-94765809D01*
X104163904Y-95194380D02*
X104163904Y-94194380D01*
X104402000Y-94194380D01*
X104544857Y-94242000D01*
X104640095Y-94337238D01*
X104687714Y-94432476D01*
X104735333Y-94622952D01*
X104735333Y-94765809D01*
X104687714Y-94956285D01*
X104640095Y-95051523D01*
X104544857Y-95146761D01*
X104402000Y-95194380D01*
X104163904Y-95194380D01*
X105640095Y-94194380D02*
X105163904Y-94194380D01*
X105116285Y-94670571D01*
X105163904Y-94622952D01*
X105259142Y-94575333D01*
X105497238Y-94575333D01*
X105592476Y-94622952D01*
X105640095Y-94670571D01*
X105687714Y-94765809D01*
X105687714Y-95003904D01*
X105640095Y-95099142D01*
X105592476Y-95146761D01*
X105497238Y-95194380D01*
X105259142Y-95194380D01*
X105163904Y-95146761D01*
X105116285Y-95099142D01*
X101623904Y-95194380D02*
X101623904Y-94194380D01*
X101862000Y-94194380D01*
X102004857Y-94242000D01*
X102100095Y-94337238D01*
X102147714Y-94432476D01*
X102195333Y-94622952D01*
X102195333Y-94765809D01*
X102147714Y-94956285D01*
X102100095Y-95051523D01*
X102004857Y-95146761D01*
X101862000Y-95194380D01*
X101623904Y-95194380D01*
X102814380Y-94194380D02*
X102909619Y-94194380D01*
X103004857Y-94242000D01*
X103052476Y-94289619D01*
X103100095Y-94384857D01*
X103147714Y-94575333D01*
X103147714Y-94813428D01*
X103100095Y-95003904D01*
X103052476Y-95099142D01*
X103004857Y-95146761D01*
X102909619Y-95194380D01*
X102814380Y-95194380D01*
X102719142Y-95146761D01*
X102671523Y-95099142D01*
X102623904Y-95003904D01*
X102576285Y-94813428D01*
X102576285Y-94575333D01*
X102623904Y-94384857D01*
X102671523Y-94289619D01*
X102719142Y-94242000D01*
X102814380Y-94194380D01*
X99107714Y-94908666D02*
X99583904Y-94908666D01*
X99012476Y-95194380D02*
X99345809Y-94194380D01*
X99679142Y-95194380D01*
X100202952Y-94194380D02*
X100298190Y-94194380D01*
X100393428Y-94242000D01*
X100441047Y-94289619D01*
X100488666Y-94384857D01*
X100536285Y-94575333D01*
X100536285Y-94813428D01*
X100488666Y-95003904D01*
X100441047Y-95099142D01*
X100393428Y-95146761D01*
X100298190Y-95194380D01*
X100202952Y-95194380D01*
X100107714Y-95146761D01*
X100060095Y-95099142D01*
X100012476Y-95003904D01*
X99964857Y-94813428D01*
X99964857Y-94575333D01*
X100012476Y-94384857D01*
X100060095Y-94289619D01*
X100107714Y-94242000D01*
X100202952Y-94194380D01*
X96734380Y-95295980D02*
X96401047Y-94819790D01*
X96162952Y-95295980D02*
X96162952Y-94295980D01*
X96543904Y-94295980D01*
X96639142Y-94343600D01*
X96686761Y-94391219D01*
X96734380Y-94486457D01*
X96734380Y-94629314D01*
X96686761Y-94724552D01*
X96639142Y-94772171D01*
X96543904Y-94819790D01*
X96162952Y-94819790D01*
X97115333Y-95248361D02*
X97258190Y-95295980D01*
X97496285Y-95295980D01*
X97591523Y-95248361D01*
X97639142Y-95200742D01*
X97686761Y-95105504D01*
X97686761Y-95010266D01*
X97639142Y-94915028D01*
X97591523Y-94867409D01*
X97496285Y-94819790D01*
X97305809Y-94772171D01*
X97210571Y-94724552D01*
X97162952Y-94676933D01*
X97115333Y-94581695D01*
X97115333Y-94486457D01*
X97162952Y-94391219D01*
X97210571Y-94343600D01*
X97305809Y-94295980D01*
X97543904Y-94295980D01*
X97686761Y-94343600D01*
X97972476Y-94295980D02*
X98543904Y-94295980D01*
X98258190Y-95295980D02*
X98258190Y-94295980D01*
X86552738Y-93432380D02*
X86886071Y-94432380D01*
X87219404Y-93432380D01*
X88124166Y-94337142D02*
X88076547Y-94384761D01*
X87933690Y-94432380D01*
X87838452Y-94432380D01*
X87695595Y-94384761D01*
X87600357Y-94289523D01*
X87552738Y-94194285D01*
X87505119Y-94003809D01*
X87505119Y-93860952D01*
X87552738Y-93670476D01*
X87600357Y-93575238D01*
X87695595Y-93480000D01*
X87838452Y-93432380D01*
X87933690Y-93432380D01*
X88076547Y-93480000D01*
X88124166Y-93527619D01*
X89124166Y-94337142D02*
X89076547Y-94384761D01*
X88933690Y-94432380D01*
X88838452Y-94432380D01*
X88695595Y-94384761D01*
X88600357Y-94289523D01*
X88552738Y-94194285D01*
X88505119Y-94003809D01*
X88505119Y-93860952D01*
X88552738Y-93670476D01*
X88600357Y-93575238D01*
X88695595Y-93480000D01*
X88838452Y-93432380D01*
X88933690Y-93432380D01*
X89076547Y-93480000D01*
X89124166Y-93527619D01*
X87219404Y-90940000D02*
X87124166Y-90892380D01*
X86981309Y-90892380D01*
X86838452Y-90940000D01*
X86743214Y-91035238D01*
X86695595Y-91130476D01*
X86647976Y-91320952D01*
X86647976Y-91463809D01*
X86695595Y-91654285D01*
X86743214Y-91749523D01*
X86838452Y-91844761D01*
X86981309Y-91892380D01*
X87076547Y-91892380D01*
X87219404Y-91844761D01*
X87267023Y-91797142D01*
X87267023Y-91463809D01*
X87076547Y-91463809D01*
X87695595Y-91892380D02*
X87695595Y-90892380D01*
X88267023Y-91892380D01*
X88267023Y-90892380D01*
X88743214Y-91892380D02*
X88743214Y-90892380D01*
X88981309Y-90892380D01*
X89124166Y-90940000D01*
X89219404Y-91035238D01*
X89267023Y-91130476D01*
X89314642Y-91320952D01*
X89314642Y-91463809D01*
X89267023Y-91654285D01*
X89219404Y-91749523D01*
X89124166Y-91844761D01*
X88981309Y-91892380D01*
X88743214Y-91892380D01*
X87267023Y-89257142D02*
X87219404Y-89304761D01*
X87076547Y-89352380D01*
X86981309Y-89352380D01*
X86838452Y-89304761D01*
X86743214Y-89209523D01*
X86695595Y-89114285D01*
X86647976Y-88923809D01*
X86647976Y-88780952D01*
X86695595Y-88590476D01*
X86743214Y-88495238D01*
X86838452Y-88400000D01*
X86981309Y-88352380D01*
X87076547Y-88352380D01*
X87219404Y-88400000D01*
X87267023Y-88447619D01*
X87647976Y-89304761D02*
X87790833Y-89352380D01*
X88028928Y-89352380D01*
X88124166Y-89304761D01*
X88171785Y-89257142D01*
X88219404Y-89161904D01*
X88219404Y-89066666D01*
X88171785Y-88971428D01*
X88124166Y-88923809D01*
X88028928Y-88876190D01*
X87838452Y-88828571D01*
X87743214Y-88780952D01*
X87695595Y-88733333D01*
X87647976Y-88638095D01*
X87647976Y-88542857D01*
X87695595Y-88447619D01*
X87743214Y-88400000D01*
X87838452Y-88352380D01*
X88076547Y-88352380D01*
X88219404Y-88400000D01*
X87267023Y-86812380D02*
X86933690Y-86336190D01*
X86695595Y-86812380D02*
X86695595Y-85812380D01*
X87076547Y-85812380D01*
X87171785Y-85860000D01*
X87219404Y-85907619D01*
X87267023Y-86002857D01*
X87267023Y-86145714D01*
X87219404Y-86240952D01*
X87171785Y-86288571D01*
X87076547Y-86336190D01*
X86695595Y-86336190D01*
X87647976Y-86764761D02*
X87790833Y-86812380D01*
X88028928Y-86812380D01*
X88124166Y-86764761D01*
X88171785Y-86717142D01*
X88219404Y-86621904D01*
X88219404Y-86526666D01*
X88171785Y-86431428D01*
X88124166Y-86383809D01*
X88028928Y-86336190D01*
X87838452Y-86288571D01*
X87743214Y-86240952D01*
X87695595Y-86193333D01*
X87647976Y-86098095D01*
X87647976Y-86002857D01*
X87695595Y-85907619D01*
X87743214Y-85860000D01*
X87838452Y-85812380D01*
X88076547Y-85812380D01*
X88219404Y-85860000D01*
X88505119Y-85812380D02*
X89076547Y-85812380D01*
X88790833Y-86812380D02*
X88790833Y-85812380D01*
X86695595Y-84272380D02*
X86695595Y-83272380D01*
X86933690Y-83272380D01*
X87076547Y-83320000D01*
X87171785Y-83415238D01*
X87219404Y-83510476D01*
X87267023Y-83700952D01*
X87267023Y-83843809D01*
X87219404Y-84034285D01*
X87171785Y-84129523D01*
X87076547Y-84224761D01*
X86933690Y-84272380D01*
X86695595Y-84272380D01*
X88409880Y-83224761D02*
X87552738Y-84510476D01*
X89314642Y-84177142D02*
X89267023Y-84224761D01*
X89124166Y-84272380D01*
X89028928Y-84272380D01*
X88886071Y-84224761D01*
X88790833Y-84129523D01*
X88743214Y-84034285D01*
X88695595Y-83843809D01*
X88695595Y-83700952D01*
X88743214Y-83510476D01*
X88790833Y-83415238D01*
X88886071Y-83320000D01*
X89028928Y-83272380D01*
X89124166Y-83272380D01*
X89267023Y-83320000D01*
X89314642Y-83367619D01*
X86695595Y-81732380D02*
X86695595Y-80732380D01*
X87028928Y-81446666D01*
X87362261Y-80732380D01*
X87362261Y-81732380D01*
X88028928Y-80732380D02*
X88219404Y-80732380D01*
X88314642Y-80780000D01*
X88409880Y-80875238D01*
X88457500Y-81065714D01*
X88457500Y-81399047D01*
X88409880Y-81589523D01*
X88314642Y-81684761D01*
X88219404Y-81732380D01*
X88028928Y-81732380D01*
X87933690Y-81684761D01*
X87838452Y-81589523D01*
X87790833Y-81399047D01*
X87790833Y-81065714D01*
X87838452Y-80875238D01*
X87933690Y-80780000D01*
X88028928Y-80732380D01*
X88838452Y-81684761D02*
X88981309Y-81732380D01*
X89219404Y-81732380D01*
X89314642Y-81684761D01*
X89362261Y-81637142D01*
X89409880Y-81541904D01*
X89409880Y-81446666D01*
X89362261Y-81351428D01*
X89314642Y-81303809D01*
X89219404Y-81256190D01*
X89028928Y-81208571D01*
X88933690Y-81160952D01*
X88886071Y-81113333D01*
X88838452Y-81018095D01*
X88838452Y-80922857D01*
X88886071Y-80827619D01*
X88933690Y-80780000D01*
X89028928Y-80732380D01*
X89267023Y-80732380D01*
X89409880Y-80780000D01*
X89838452Y-81732380D02*
X89838452Y-80732380D01*
X87267023Y-79097142D02*
X87219404Y-79144761D01*
X87076547Y-79192380D01*
X86981309Y-79192380D01*
X86838452Y-79144761D01*
X86743214Y-79049523D01*
X86695595Y-78954285D01*
X86647976Y-78763809D01*
X86647976Y-78620952D01*
X86695595Y-78430476D01*
X86743214Y-78335238D01*
X86838452Y-78240000D01*
X86981309Y-78192380D01*
X87076547Y-78192380D01*
X87219404Y-78240000D01*
X87267023Y-78287619D01*
X88171785Y-79192380D02*
X87695595Y-79192380D01*
X87695595Y-78192380D01*
X88505119Y-79192380D02*
X88505119Y-78192380D01*
X89076547Y-79192380D02*
X88647976Y-78620952D01*
X89076547Y-78192380D02*
X88505119Y-78763809D01*
X87171785Y-76652380D02*
X86695595Y-76652380D01*
X86695595Y-75652380D01*
X87505119Y-76128571D02*
X87838452Y-76128571D01*
X87981309Y-76652380D02*
X87505119Y-76652380D01*
X87505119Y-75652380D01*
X87981309Y-75652380D01*
X88409880Y-76652380D02*
X88409880Y-75652380D01*
X88647976Y-75652380D01*
X88790833Y-75700000D01*
X88886071Y-75795238D01*
X88933690Y-75890476D01*
X88981309Y-76080952D01*
X88981309Y-76223809D01*
X88933690Y-76414285D01*
X88886071Y-76509523D01*
X88790833Y-76604761D01*
X88647976Y-76652380D01*
X88409880Y-76652380D01*
X86695595Y-74112380D02*
X86695595Y-73112380D01*
X87028928Y-73826666D01*
X87362261Y-73112380D01*
X87362261Y-74112380D01*
X87838452Y-74112380D02*
X87838452Y-73112380D01*
X88267023Y-74064761D02*
X88409880Y-74112380D01*
X88647976Y-74112380D01*
X88743214Y-74064761D01*
X88790833Y-74017142D01*
X88838452Y-73921904D01*
X88838452Y-73826666D01*
X88790833Y-73731428D01*
X88743214Y-73683809D01*
X88647976Y-73636190D01*
X88457500Y-73588571D01*
X88362261Y-73540952D01*
X88314642Y-73493333D01*
X88267023Y-73398095D01*
X88267023Y-73302857D01*
X88314642Y-73207619D01*
X88362261Y-73160000D01*
X88457500Y-73112380D01*
X88695595Y-73112380D01*
X88838452Y-73160000D01*
X89457500Y-73112380D02*
X89647976Y-73112380D01*
X89743214Y-73160000D01*
X89838452Y-73255238D01*
X89886071Y-73445714D01*
X89886071Y-73779047D01*
X89838452Y-73969523D01*
X89743214Y-74064761D01*
X89647976Y-74112380D01*
X89457500Y-74112380D01*
X89362261Y-74064761D01*
X89267023Y-73969523D01*
X89219404Y-73779047D01*
X89219404Y-73445714D01*
X89267023Y-73255238D01*
X89362261Y-73160000D01*
X89457500Y-73112380D01*
X87267023Y-71477142D02*
X87219404Y-71524761D01*
X87076547Y-71572380D01*
X86981309Y-71572380D01*
X86838452Y-71524761D01*
X86743214Y-71429523D01*
X86695595Y-71334285D01*
X86647976Y-71143809D01*
X86647976Y-71000952D01*
X86695595Y-70810476D01*
X86743214Y-70715238D01*
X86838452Y-70620000D01*
X86981309Y-70572380D01*
X87076547Y-70572380D01*
X87219404Y-70620000D01*
X87267023Y-70667619D01*
X88171785Y-71572380D02*
X87695595Y-71572380D01*
X87695595Y-70572380D01*
X88505119Y-71572380D02*
X88505119Y-70572380D01*
X89076547Y-71572380D02*
X88647976Y-71000952D01*
X89076547Y-70572380D02*
X88505119Y-71143809D01*
X87267023Y-68937142D02*
X87219404Y-68984761D01*
X87076547Y-69032380D01*
X86981309Y-69032380D01*
X86838452Y-68984761D01*
X86743214Y-68889523D01*
X86695595Y-68794285D01*
X86647976Y-68603809D01*
X86647976Y-68460952D01*
X86695595Y-68270476D01*
X86743214Y-68175238D01*
X86838452Y-68080000D01*
X86981309Y-68032380D01*
X87076547Y-68032380D01*
X87219404Y-68080000D01*
X87267023Y-68127619D01*
X87647976Y-68984761D02*
X87790833Y-69032380D01*
X88028928Y-69032380D01*
X88124166Y-68984761D01*
X88171785Y-68937142D01*
X88219404Y-68841904D01*
X88219404Y-68746666D01*
X88171785Y-68651428D01*
X88124166Y-68603809D01*
X88028928Y-68556190D01*
X87838452Y-68508571D01*
X87743214Y-68460952D01*
X87695595Y-68413333D01*
X87647976Y-68318095D01*
X87647976Y-68222857D01*
X87695595Y-68127619D01*
X87743214Y-68080000D01*
X87838452Y-68032380D01*
X88076547Y-68032380D01*
X88219404Y-68080000D01*
X86695595Y-66492380D02*
X86695595Y-65492380D01*
X87028928Y-66206666D01*
X87362261Y-65492380D01*
X87362261Y-66492380D01*
X88028928Y-65492380D02*
X88219404Y-65492380D01*
X88314642Y-65540000D01*
X88409880Y-65635238D01*
X88457500Y-65825714D01*
X88457500Y-66159047D01*
X88409880Y-66349523D01*
X88314642Y-66444761D01*
X88219404Y-66492380D01*
X88028928Y-66492380D01*
X87933690Y-66444761D01*
X87838452Y-66349523D01*
X87790833Y-66159047D01*
X87790833Y-65825714D01*
X87838452Y-65635238D01*
X87933690Y-65540000D01*
X88028928Y-65492380D01*
X88838452Y-66444761D02*
X88981309Y-66492380D01*
X89219404Y-66492380D01*
X89314642Y-66444761D01*
X89362261Y-66397142D01*
X89409880Y-66301904D01*
X89409880Y-66206666D01*
X89362261Y-66111428D01*
X89314642Y-66063809D01*
X89219404Y-66016190D01*
X89028928Y-65968571D01*
X88933690Y-65920952D01*
X88886071Y-65873333D01*
X88838452Y-65778095D01*
X88838452Y-65682857D01*
X88886071Y-65587619D01*
X88933690Y-65540000D01*
X89028928Y-65492380D01*
X89267023Y-65492380D01*
X89409880Y-65540000D01*
X89838452Y-66492380D02*
X89838452Y-65492380D01*
X86695595Y-61412380D02*
X86695595Y-60412380D01*
X87743214Y-61412380D02*
X87409880Y-60936190D01*
X87171785Y-61412380D02*
X87171785Y-60412380D01*
X87552738Y-60412380D01*
X87647976Y-60460000D01*
X87695595Y-60507619D01*
X87743214Y-60602857D01*
X87743214Y-60745714D01*
X87695595Y-60840952D01*
X87647976Y-60888571D01*
X87552738Y-60936190D01*
X87171785Y-60936190D01*
X88838452Y-61507619D02*
X88743214Y-61460000D01*
X88647976Y-61364761D01*
X88505119Y-61221904D01*
X88409880Y-61174285D01*
X88314642Y-61174285D01*
X88362261Y-61412380D02*
X88267023Y-61364761D01*
X88171785Y-61269523D01*
X88124166Y-61079047D01*
X88124166Y-60745714D01*
X88171785Y-60555238D01*
X88267023Y-60460000D01*
X88362261Y-60412380D01*
X88552738Y-60412380D01*
X88647976Y-60460000D01*
X88743214Y-60555238D01*
X88790833Y-60745714D01*
X88790833Y-61079047D01*
X88743214Y-61269523D01*
X88647976Y-61364761D01*
X88552738Y-61412380D01*
X88362261Y-61412380D01*
X86695595Y-63952380D02*
X86695595Y-62952380D01*
X87028928Y-63666666D01*
X87362261Y-62952380D01*
X87362261Y-63952380D01*
X87838452Y-63952380D02*
X87838452Y-62952380D01*
X88267023Y-63904761D02*
X88409880Y-63952380D01*
X88647976Y-63952380D01*
X88743214Y-63904761D01*
X88790833Y-63857142D01*
X88838452Y-63761904D01*
X88838452Y-63666666D01*
X88790833Y-63571428D01*
X88743214Y-63523809D01*
X88647976Y-63476190D01*
X88457500Y-63428571D01*
X88362261Y-63380952D01*
X88314642Y-63333333D01*
X88267023Y-63238095D01*
X88267023Y-63142857D01*
X88314642Y-63047619D01*
X88362261Y-63000000D01*
X88457500Y-62952380D01*
X88695595Y-62952380D01*
X88838452Y-63000000D01*
X89457500Y-62952380D02*
X89647976Y-62952380D01*
X89743214Y-63000000D01*
X89838452Y-63095238D01*
X89886071Y-63285714D01*
X89886071Y-63619047D01*
X89838452Y-63809523D01*
X89743214Y-63904761D01*
X89647976Y-63952380D01*
X89457500Y-63952380D01*
X89362261Y-63904761D01*
X89267023Y-63809523D01*
X89219404Y-63619047D01*
X89219404Y-63285714D01*
X89267023Y-63095238D01*
X89362261Y-63000000D01*
X89457500Y-62952380D01*
D11*
X95952000Y-62230000D02*
X95952000Y-60900000D01*
X95952000Y-60900000D02*
X97282000Y-60900000D01*
X98552000Y-60900000D02*
X116392000Y-60900000D01*
X116392000Y-63560000D02*
X116392000Y-60900000D01*
X98552000Y-63560000D02*
X116392000Y-63560000D01*
X98552000Y-63560000D02*
X98552000Y-60900000D01*
X95952000Y-92710000D02*
X95952000Y-91380000D01*
X95952000Y-91380000D02*
X97282000Y-91380000D01*
X98552000Y-91380000D02*
X116392000Y-91380000D01*
X116392000Y-94040000D02*
X116392000Y-91380000D01*
X98552000Y-94040000D02*
X116392000Y-94040000D01*
X98552000Y-94040000D02*
X98552000Y-91380000D01*
X116502000Y-87860000D02*
X123402000Y-87860000D01*
X116502000Y-90400000D02*
X116502000Y-87860000D01*
D10*
G36*
X96647000Y-91440000D02*
G01*
X97917000Y-91440000D01*
X97282000Y-90805000D01*
X96647000Y-91440000D01*
G37*
X96647000Y-91440000D02*
X97917000Y-91440000D01*
X97282000Y-90805000D01*
X96647000Y-91440000D01*
D11*
X88942000Y-66660000D02*
X88942000Y-88270000D01*
X123402000Y-64540000D02*
X91072000Y-64540000D01*
X116502000Y-90400000D02*
X91072000Y-90400000D01*
X123402000Y-87860000D02*
X123402000Y-64540000D01*
X88942000Y-66670000D02*
G75*
G02*
X91072000Y-64540000I2130000J0D01*
G01*
X91072000Y-90400000D02*
G75*
G02*
X88942000Y-88270000I0J2130000D01*
G01*
D10*
X93964380Y-62563333D02*
X94678666Y-62563333D01*
X94821523Y-62610952D01*
X94916761Y-62706190D01*
X94964380Y-62849047D01*
X94964380Y-62944285D01*
X94964380Y-61563333D02*
X94964380Y-62134761D01*
X94964380Y-61849047D02*
X93964380Y-61849047D01*
X94107238Y-61944285D01*
X94202476Y-62039523D01*
X94250095Y-62134761D01*
X93964380Y-93043333D02*
X94678666Y-93043333D01*
X94821523Y-93090952D01*
X94916761Y-93186190D01*
X94964380Y-93329047D01*
X94964380Y-93424285D01*
X94059619Y-92614761D02*
X94012000Y-92567142D01*
X93964380Y-92471904D01*
X93964380Y-92233809D01*
X94012000Y-92138571D01*
X94059619Y-92090952D01*
X94154857Y-92043333D01*
X94250095Y-92043333D01*
X94392952Y-92090952D01*
X94964380Y-92662380D01*
X94964380Y-92043333D01*
X123734380Y-67661904D02*
X124543904Y-67661904D01*
X124639142Y-67614285D01*
X124686761Y-67566666D01*
X124734380Y-67471428D01*
X124734380Y-67280952D01*
X124686761Y-67185714D01*
X124639142Y-67138095D01*
X124543904Y-67090476D01*
X123734380Y-67090476D01*
X123829619Y-66661904D02*
X123782000Y-66614285D01*
X123734380Y-66519047D01*
X123734380Y-66280952D01*
X123782000Y-66185714D01*
X123829619Y-66138095D01*
X123924857Y-66090476D01*
X124020095Y-66090476D01*
X124162952Y-66138095D01*
X124734380Y-66709523D01*
X124734380Y-66090476D01*
%LPC*%
D12*
X115062000Y-62230000D03*
X112522000Y-62230000D03*
X109982000Y-62230000D03*
X107442000Y-62230000D03*
X104902000Y-62230000D03*
X102362000Y-62230000D03*
X99822000Y-62230000D03*
D13*
X97282000Y-62230000D03*
D12*
X115062000Y-92710000D03*
X112522000Y-92710000D03*
X109982000Y-92710000D03*
X107442000Y-92710000D03*
X104902000Y-92710000D03*
X102362000Y-92710000D03*
X99822000Y-92710000D03*
D13*
X97282000Y-92710000D03*
D14*
X92456000Y-86995000D03*
X92456000Y-67945000D03*
D15*
X97282000Y-66040000D03*
X99822000Y-66040000D03*
X102362000Y-66040000D03*
X104902000Y-66040000D03*
X107442000Y-66040000D03*
X109982000Y-66040000D03*
X112522000Y-66040000D03*
X115062000Y-66040000D03*
X115062000Y-88900000D03*
X112522000Y-88900000D03*
X109982000Y-88900000D03*
X107442000Y-88900000D03*
X104902000Y-88900000D03*
X102362000Y-88900000D03*
D16*
X97282000Y-88900000D03*
D15*
X99822000Y-88900000D03*
D12*
X85090000Y-60960000D03*
X85090000Y-63500000D03*
X85090000Y-66040000D03*
X85090000Y-68580000D03*
X85090000Y-71120000D03*
X85090000Y-73660000D03*
X85090000Y-76200000D03*
X85090000Y-78740000D03*
X85090000Y-81280000D03*
X85090000Y-83820000D03*
X85090000Y-86360000D03*
X85090000Y-88900000D03*
X85090000Y-91440000D03*
D13*
X85090000Y-93980000D03*
M02*
