M48
; DRILL file {KiCad (5.1.10)-1} date 09/27/21 00:24:50
; FORMAT={-:-/ absolute / metric / decimal}
; #@! TF.CreationDate,2021-09-27T00:24:50+02:00
; #@! TF.GenerationSoftware,Kicad,Pcbnew,(5.1.10)-1
; #@! TF.FileFunction,Plated,1,2,PTH
FMAT,2
METRIC
T1C1.000
T2C3.200
%
G90
G05
T1
X85.09Y-60.96
X85.09Y-63.5
X85.09Y-66.04
X85.09Y-68.58
X85.09Y-71.12
X85.09Y-73.66
X85.09Y-76.2
X85.09Y-78.74
X85.09Y-81.28
X85.09Y-83.82
X85.09Y-86.36
X85.09Y-88.9
X85.09Y-91.44
X85.09Y-93.98
X97.282Y-62.23
X97.282Y-66.04
X97.282Y-88.9
X97.282Y-92.71
X99.822Y-62.23
X99.822Y-66.04
X99.822Y-88.9
X99.822Y-92.71
X102.362Y-62.23
X102.362Y-66.04
X102.362Y-88.9
X102.362Y-92.71
X104.902Y-62.23
X104.902Y-66.04
X104.902Y-88.9
X104.902Y-92.71
X107.442Y-62.23
X107.442Y-66.04
X107.442Y-88.9
X107.442Y-92.71
X109.982Y-62.23
X109.982Y-66.04
X109.982Y-88.9
X109.982Y-92.71
X112.522Y-62.23
X112.522Y-66.04
X112.522Y-88.9
X112.522Y-92.71
X115.062Y-62.23
X115.062Y-66.04
X115.062Y-88.9
X115.062Y-92.71
T2
X92.456Y-67.945
X92.456Y-86.995
T0
M30
