G04 #@! TF.GenerationSoftware,KiCad,Pcbnew,(5.1.10)-1*
G04 #@! TF.CreationDate,2021-09-27T00:24:43+02:00*
G04 #@! TF.ProjectId,ili9341,696c6939-3334-4312-9e6b-696361645f70,rev?*
G04 #@! TF.SameCoordinates,Original*
G04 #@! TF.FileFunction,Copper,L2,Bot*
G04 #@! TF.FilePolarity,Positive*
%FSLAX46Y46*%
G04 Gerber Fmt 4.6, Leading zero omitted, Abs format (unit mm)*
G04 Created by KiCad (PCBNEW (5.1.10)-1) date 2021-09-27 00:24:43*
%MOMM*%
%LPD*%
G01*
G04 APERTURE LIST*
G04 #@! TA.AperFunction,ComponentPad*
%ADD10O,1.700000X1.700000*%
G04 #@! TD*
G04 #@! TA.AperFunction,ComponentPad*
%ADD11R,1.700000X1.700000*%
G04 #@! TD*
G04 #@! TA.AperFunction,ComponentPad*
%ADD12C,5.600000*%
G04 #@! TD*
G04 #@! TA.AperFunction,ComponentPad*
%ADD13O,1.600000X2.000000*%
G04 #@! TD*
G04 #@! TA.AperFunction,ComponentPad*
%ADD14R,2.000000X2.000000*%
G04 #@! TD*
G04 #@! TA.AperFunction,Conductor*
%ADD15C,0.300000*%
G04 #@! TD*
G04 #@! TA.AperFunction,Conductor*
%ADD16C,0.250000*%
G04 #@! TD*
G04 #@! TA.AperFunction,Conductor*
%ADD17C,0.400000*%
G04 #@! TD*
G04 #@! TA.AperFunction,Conductor*
%ADD18C,0.254000*%
G04 #@! TD*
G04 #@! TA.AperFunction,Conductor*
%ADD19C,0.100000*%
G04 #@! TD*
G04 APERTURE END LIST*
D10*
X115062000Y-62230000D03*
X112522000Y-62230000D03*
X109982000Y-62230000D03*
X107442000Y-62230000D03*
X104902000Y-62230000D03*
X102362000Y-62230000D03*
X99822000Y-62230000D03*
D11*
X97282000Y-62230000D03*
D10*
X115062000Y-92710000D03*
X112522000Y-92710000D03*
X109982000Y-92710000D03*
X107442000Y-92710000D03*
X104902000Y-92710000D03*
X102362000Y-92710000D03*
X99822000Y-92710000D03*
D11*
X97282000Y-92710000D03*
D12*
X92456000Y-86995000D03*
X92456000Y-67945000D03*
D13*
X97282000Y-66040000D03*
X99822000Y-66040000D03*
X102362000Y-66040000D03*
X104902000Y-66040000D03*
X107442000Y-66040000D03*
X109982000Y-66040000D03*
X112522000Y-66040000D03*
X115062000Y-66040000D03*
X115062000Y-88900000D03*
X112522000Y-88900000D03*
X109982000Y-88900000D03*
X107442000Y-88900000D03*
X104902000Y-88900000D03*
X102362000Y-88900000D03*
D14*
X97282000Y-88900000D03*
D13*
X99822000Y-88900000D03*
D10*
X85090000Y-60960000D03*
X85090000Y-63500000D03*
X85090000Y-66040000D03*
X85090000Y-68580000D03*
X85090000Y-71120000D03*
X85090000Y-73660000D03*
X85090000Y-76200000D03*
X85090000Y-78740000D03*
X85090000Y-81280000D03*
X85090000Y-83820000D03*
X85090000Y-86360000D03*
X85090000Y-88900000D03*
X85090000Y-91440000D03*
D11*
X85090000Y-93980000D03*
D15*
X102362000Y-62230000D02*
X102362000Y-66040000D01*
X100242001Y-60110001D02*
X102362000Y-62230000D01*
X85939999Y-60110001D02*
X100242001Y-60110001D01*
X85090000Y-60960000D02*
X85939999Y-60110001D01*
D16*
X86995000Y-71755000D02*
X85090000Y-73660000D01*
X86995000Y-65405000D02*
X86995000Y-71755000D01*
X85090000Y-63500000D02*
X86995000Y-65405000D01*
X83820000Y-67310000D02*
X85090000Y-66040000D01*
X83820000Y-80104999D02*
X83820000Y-67310000D01*
X85090000Y-81280000D02*
X83820000Y-80104999D01*
D15*
X86614000Y-82804000D02*
X85090000Y-81280000D01*
X86614000Y-90043000D02*
X86614000Y-82804000D01*
X88030999Y-91440000D02*
X86614000Y-90043000D01*
X108585000Y-91440000D02*
X88030999Y-91440000D01*
X109982000Y-92710000D02*
X108585000Y-91440000D01*
X107442000Y-62230000D02*
X107442000Y-66040000D01*
X104902000Y-89154000D02*
X104902000Y-88900000D01*
X87757000Y-81407000D02*
X85090000Y-78740000D01*
X103104990Y-90697010D02*
X88792010Y-90697010D01*
X104902000Y-88900000D02*
X103104990Y-90697010D01*
X87757000Y-89662000D02*
X88792010Y-90697010D01*
X87757000Y-81407000D02*
X87757000Y-89662000D01*
X99822000Y-62230000D02*
X99822000Y-66040000D01*
X98571999Y-60979999D02*
X99822000Y-62230000D01*
X91674001Y-60979999D02*
X98571999Y-60979999D01*
X87884000Y-64770000D02*
X91674001Y-60979999D01*
X87884000Y-73406000D02*
X87884000Y-64770000D01*
X85090000Y-76200000D02*
X87884000Y-73406000D01*
X104902000Y-62230000D02*
X104902000Y-66040000D01*
D17*
X112522000Y-62230000D02*
X112522000Y-66040000D01*
X116840000Y-69850000D02*
X112522000Y-66040000D01*
X116840000Y-93110002D02*
X116840000Y-69850000D01*
X115570000Y-94615000D02*
X116840000Y-93110002D01*
X88900000Y-94615000D02*
X115570000Y-94615000D01*
X85090000Y-91440000D02*
X88900000Y-94615000D01*
D15*
X115062000Y-62230000D02*
X115062000Y-66040000D01*
X109982000Y-62230000D02*
X109982000Y-66040000D01*
X97282000Y-62230000D02*
X97282000Y-66040000D01*
D18*
X117525001Y-95225000D02*
X86437295Y-95225000D01*
X86470537Y-95184494D01*
X86529502Y-95074180D01*
X86565812Y-94954482D01*
X86578072Y-94830000D01*
X86578072Y-93130000D01*
X86565812Y-93005518D01*
X86529502Y-92885820D01*
X86470537Y-92775506D01*
X86391185Y-92678815D01*
X86294494Y-92599463D01*
X86184180Y-92540498D01*
X86103534Y-92516034D01*
X86187588Y-92440269D01*
X86361641Y-92206920D01*
X86486825Y-91944099D01*
X86531476Y-91796890D01*
X86410155Y-91567000D01*
X85217000Y-91567000D01*
X85217000Y-91587000D01*
X84963000Y-91587000D01*
X84963000Y-91567000D01*
X84943000Y-91567000D01*
X84943000Y-91313000D01*
X84963000Y-91313000D01*
X84963000Y-91293000D01*
X85217000Y-91293000D01*
X85217000Y-91313000D01*
X86410155Y-91313000D01*
X86531476Y-91083110D01*
X86523203Y-91055835D01*
X87450429Y-91969975D01*
X87473235Y-91997764D01*
X87505347Y-92024118D01*
X87507338Y-92026081D01*
X87535137Y-92048567D01*
X87592766Y-92095862D01*
X87595252Y-92097191D01*
X87597438Y-92098959D01*
X87663318Y-92133573D01*
X87729139Y-92168754D01*
X87731838Y-92169573D01*
X87734326Y-92170880D01*
X87805789Y-92192005D01*
X87877112Y-92213641D01*
X87879910Y-92213917D01*
X87882614Y-92214716D01*
X87956822Y-92221492D01*
X87992438Y-92225000D01*
X87995240Y-92225000D01*
X88036604Y-92228777D01*
X88072348Y-92225000D01*
X95793928Y-92225000D01*
X95793928Y-93560000D01*
X95806188Y-93684482D01*
X95842498Y-93804180D01*
X95901463Y-93914494D01*
X95980815Y-94011185D01*
X96077506Y-94090537D01*
X96187820Y-94149502D01*
X96307518Y-94185812D01*
X96432000Y-94198072D01*
X98132000Y-94198072D01*
X98256482Y-94185812D01*
X98376180Y-94149502D01*
X98486494Y-94090537D01*
X98583185Y-94011185D01*
X98662537Y-93914494D01*
X98721502Y-93804180D01*
X98743513Y-93731620D01*
X98875368Y-93863475D01*
X99118589Y-94025990D01*
X99388842Y-94137932D01*
X99675740Y-94195000D01*
X99968260Y-94195000D01*
X100255158Y-94137932D01*
X100525411Y-94025990D01*
X100768632Y-93863475D01*
X100975475Y-93656632D01*
X101092000Y-93482240D01*
X101208525Y-93656632D01*
X101415368Y-93863475D01*
X101658589Y-94025990D01*
X101928842Y-94137932D01*
X102215740Y-94195000D01*
X102508260Y-94195000D01*
X102795158Y-94137932D01*
X103065411Y-94025990D01*
X103308632Y-93863475D01*
X103515475Y-93656632D01*
X103632000Y-93482240D01*
X103748525Y-93656632D01*
X103955368Y-93863475D01*
X104198589Y-94025990D01*
X104468842Y-94137932D01*
X104755740Y-94195000D01*
X105048260Y-94195000D01*
X105335158Y-94137932D01*
X105605411Y-94025990D01*
X105848632Y-93863475D01*
X106055475Y-93656632D01*
X106172000Y-93482240D01*
X106288525Y-93656632D01*
X106495368Y-93863475D01*
X106738589Y-94025990D01*
X107008842Y-94137932D01*
X107295740Y-94195000D01*
X107588260Y-94195000D01*
X107875158Y-94137932D01*
X108145411Y-94025990D01*
X108388632Y-93863475D01*
X108595475Y-93656632D01*
X108712000Y-93482240D01*
X108828525Y-93656632D01*
X109035368Y-93863475D01*
X109278589Y-94025990D01*
X109548842Y-94137932D01*
X109835740Y-94195000D01*
X110128260Y-94195000D01*
X110415158Y-94137932D01*
X110685411Y-94025990D01*
X110928632Y-93863475D01*
X111135475Y-93656632D01*
X111252000Y-93482240D01*
X111368525Y-93656632D01*
X111575368Y-93863475D01*
X111818589Y-94025990D01*
X112088842Y-94137932D01*
X112375740Y-94195000D01*
X112668260Y-94195000D01*
X112955158Y-94137932D01*
X113225411Y-94025990D01*
X113468632Y-93863475D01*
X113675475Y-93656632D01*
X113792000Y-93482240D01*
X113908525Y-93656632D01*
X114115368Y-93863475D01*
X114358589Y-94025990D01*
X114628842Y-94137932D01*
X114915740Y-94195000D01*
X115208260Y-94195000D01*
X115495158Y-94137932D01*
X115765411Y-94025990D01*
X116008632Y-93863475D01*
X116215475Y-93656632D01*
X116377990Y-93413411D01*
X116489932Y-93143158D01*
X116547000Y-92856260D01*
X116547000Y-92563740D01*
X116489932Y-92276842D01*
X116377990Y-92006589D01*
X116215475Y-91763368D01*
X116008632Y-91556525D01*
X115765411Y-91394010D01*
X115495158Y-91282068D01*
X115208260Y-91225000D01*
X114915740Y-91225000D01*
X114628842Y-91282068D01*
X114358589Y-91394010D01*
X114115368Y-91556525D01*
X113908525Y-91763368D01*
X113792000Y-91937760D01*
X113675475Y-91763368D01*
X113468632Y-91556525D01*
X113225411Y-91394010D01*
X112955158Y-91282068D01*
X112668260Y-91225000D01*
X112375740Y-91225000D01*
X112088842Y-91282068D01*
X111818589Y-91394010D01*
X111575368Y-91556525D01*
X111368525Y-91763368D01*
X111252000Y-91937760D01*
X111135475Y-91763368D01*
X110928632Y-91556525D01*
X110685411Y-91394010D01*
X110415158Y-91282068D01*
X110128260Y-91225000D01*
X109835740Y-91225000D01*
X109572979Y-91277267D01*
X109155455Y-90897700D01*
X109142764Y-90882236D01*
X109098345Y-90845782D01*
X109084515Y-90833209D01*
X109068576Y-90821351D01*
X109023233Y-90784138D01*
X109006629Y-90775263D01*
X108991540Y-90764037D01*
X108938590Y-90738896D01*
X108886860Y-90711246D01*
X108868849Y-90705783D01*
X108851854Y-90697713D01*
X108795003Y-90683382D01*
X108738887Y-90666359D01*
X108720159Y-90664514D01*
X108701914Y-90659915D01*
X108643366Y-90656951D01*
X108623561Y-90655000D01*
X108604838Y-90655000D01*
X108547481Y-90652096D01*
X108527698Y-90655000D01*
X104257157Y-90655000D01*
X104449770Y-90462388D01*
X104620692Y-90514236D01*
X104902000Y-90541943D01*
X105183309Y-90514236D01*
X105453808Y-90432182D01*
X105703101Y-90298932D01*
X105921608Y-90119608D01*
X106100932Y-89901101D01*
X106172000Y-89768142D01*
X106243068Y-89901101D01*
X106422393Y-90119608D01*
X106640900Y-90298932D01*
X106890193Y-90432182D01*
X107160692Y-90514236D01*
X107442000Y-90541943D01*
X107723309Y-90514236D01*
X107993808Y-90432182D01*
X108243101Y-90298932D01*
X108461608Y-90119608D01*
X108640932Y-89901101D01*
X108712000Y-89768142D01*
X108783068Y-89901101D01*
X108962393Y-90119608D01*
X109180900Y-90298932D01*
X109430193Y-90432182D01*
X109700692Y-90514236D01*
X109982000Y-90541943D01*
X110263309Y-90514236D01*
X110533808Y-90432182D01*
X110783101Y-90298932D01*
X111001608Y-90119608D01*
X111180932Y-89901101D01*
X111252000Y-89768142D01*
X111323068Y-89901101D01*
X111502393Y-90119608D01*
X111720900Y-90298932D01*
X111970193Y-90432182D01*
X112240692Y-90514236D01*
X112522000Y-90541943D01*
X112803309Y-90514236D01*
X113073808Y-90432182D01*
X113323101Y-90298932D01*
X113541608Y-90119608D01*
X113720932Y-89901101D01*
X113792000Y-89768142D01*
X113863068Y-89901101D01*
X114042393Y-90119608D01*
X114260900Y-90298932D01*
X114510193Y-90432182D01*
X114780692Y-90514236D01*
X115062000Y-90541943D01*
X115343309Y-90514236D01*
X115613808Y-90432182D01*
X115863101Y-90298932D01*
X116081608Y-90119608D01*
X116260932Y-89901101D01*
X116394182Y-89651807D01*
X116476236Y-89381308D01*
X116497000Y-89170491D01*
X116497000Y-88629508D01*
X116476236Y-88418691D01*
X116394182Y-88148192D01*
X116260932Y-87898899D01*
X116081607Y-87680392D01*
X115863100Y-87501068D01*
X115613807Y-87367818D01*
X115343308Y-87285764D01*
X115062000Y-87258057D01*
X114780691Y-87285764D01*
X114510192Y-87367818D01*
X114260899Y-87501068D01*
X114042392Y-87680393D01*
X113863068Y-87898900D01*
X113792000Y-88031858D01*
X113720932Y-87898899D01*
X113541607Y-87680392D01*
X113323100Y-87501068D01*
X113073807Y-87367818D01*
X112803308Y-87285764D01*
X112522000Y-87258057D01*
X112240691Y-87285764D01*
X111970192Y-87367818D01*
X111720899Y-87501068D01*
X111502392Y-87680393D01*
X111323068Y-87898900D01*
X111252000Y-88031858D01*
X111180932Y-87898899D01*
X111001607Y-87680392D01*
X110783100Y-87501068D01*
X110533807Y-87367818D01*
X110263308Y-87285764D01*
X109982000Y-87258057D01*
X109700691Y-87285764D01*
X109430192Y-87367818D01*
X109180899Y-87501068D01*
X108962392Y-87680393D01*
X108783068Y-87898900D01*
X108712000Y-88031858D01*
X108640932Y-87898899D01*
X108461607Y-87680392D01*
X108243100Y-87501068D01*
X107993807Y-87367818D01*
X107723308Y-87285764D01*
X107442000Y-87258057D01*
X107160691Y-87285764D01*
X106890192Y-87367818D01*
X106640899Y-87501068D01*
X106422392Y-87680393D01*
X106243068Y-87898900D01*
X106172000Y-88031858D01*
X106100932Y-87898899D01*
X105921607Y-87680392D01*
X105703100Y-87501068D01*
X105453807Y-87367818D01*
X105183308Y-87285764D01*
X104902000Y-87258057D01*
X104620691Y-87285764D01*
X104350192Y-87367818D01*
X104100899Y-87501068D01*
X103882392Y-87680393D01*
X103703068Y-87898900D01*
X103632000Y-88031858D01*
X103560932Y-87898899D01*
X103381607Y-87680392D01*
X103163100Y-87501068D01*
X102913807Y-87367818D01*
X102643308Y-87285764D01*
X102362000Y-87258057D01*
X102080691Y-87285764D01*
X101810192Y-87367818D01*
X101560899Y-87501068D01*
X101342392Y-87680393D01*
X101163068Y-87898900D01*
X101092000Y-88031858D01*
X101020932Y-87898899D01*
X100841607Y-87680392D01*
X100623100Y-87501068D01*
X100373807Y-87367818D01*
X100103308Y-87285764D01*
X99822000Y-87258057D01*
X99540691Y-87285764D01*
X99270192Y-87367818D01*
X99020899Y-87501068D01*
X98859559Y-87633477D01*
X98812537Y-87545506D01*
X98733185Y-87448815D01*
X98636494Y-87369463D01*
X98526180Y-87310498D01*
X98406482Y-87274188D01*
X98282000Y-87261928D01*
X96282000Y-87261928D01*
X96157518Y-87274188D01*
X96037820Y-87310498D01*
X96012000Y-87324299D01*
X96012000Y-66908142D01*
X96083068Y-67041101D01*
X96262393Y-67259608D01*
X96480900Y-67438932D01*
X96730193Y-67572182D01*
X97000692Y-67654236D01*
X97282000Y-67681943D01*
X97563309Y-67654236D01*
X97833808Y-67572182D01*
X98083101Y-67438932D01*
X98301608Y-67259608D01*
X98480932Y-67041101D01*
X98552000Y-66908142D01*
X98623068Y-67041101D01*
X98802393Y-67259608D01*
X99020900Y-67438932D01*
X99270193Y-67572182D01*
X99540692Y-67654236D01*
X99822000Y-67681943D01*
X100103309Y-67654236D01*
X100373808Y-67572182D01*
X100623101Y-67438932D01*
X100841608Y-67259608D01*
X101020932Y-67041101D01*
X101092000Y-66908142D01*
X101163068Y-67041101D01*
X101342393Y-67259608D01*
X101560900Y-67438932D01*
X101810193Y-67572182D01*
X102080692Y-67654236D01*
X102362000Y-67681943D01*
X102643309Y-67654236D01*
X102913808Y-67572182D01*
X103163101Y-67438932D01*
X103381608Y-67259608D01*
X103560932Y-67041101D01*
X103632000Y-66908142D01*
X103703068Y-67041101D01*
X103882393Y-67259608D01*
X104100900Y-67438932D01*
X104350193Y-67572182D01*
X104620692Y-67654236D01*
X104902000Y-67681943D01*
X105183309Y-67654236D01*
X105453808Y-67572182D01*
X105703101Y-67438932D01*
X105921608Y-67259608D01*
X106100932Y-67041101D01*
X106172000Y-66908142D01*
X106243068Y-67041101D01*
X106422393Y-67259608D01*
X106640900Y-67438932D01*
X106890193Y-67572182D01*
X107160692Y-67654236D01*
X107442000Y-67681943D01*
X107723309Y-67654236D01*
X107993808Y-67572182D01*
X108243101Y-67438932D01*
X108461608Y-67259608D01*
X108640932Y-67041101D01*
X108712000Y-66908142D01*
X108783068Y-67041101D01*
X108962393Y-67259608D01*
X109180900Y-67438932D01*
X109430193Y-67572182D01*
X109700692Y-67654236D01*
X109982000Y-67681943D01*
X110263309Y-67654236D01*
X110533808Y-67572182D01*
X110783101Y-67438932D01*
X111001608Y-67259608D01*
X111180932Y-67041101D01*
X111250122Y-66911655D01*
X111257570Y-66929227D01*
X111416327Y-67162662D01*
X111617575Y-67360639D01*
X111853579Y-67515551D01*
X112115270Y-67621444D01*
X112172961Y-67631904D01*
X112395000Y-67509915D01*
X112395000Y-66167000D01*
X112375000Y-66167000D01*
X112375000Y-65913000D01*
X112395000Y-65913000D01*
X112395000Y-64570085D01*
X112172961Y-64448096D01*
X112115270Y-64458556D01*
X111853579Y-64564449D01*
X111617575Y-64719361D01*
X111416327Y-64917338D01*
X111257570Y-65150773D01*
X111250122Y-65168345D01*
X111180932Y-65038899D01*
X111001607Y-64820392D01*
X110783100Y-64641068D01*
X110767000Y-64632462D01*
X110767000Y-63491474D01*
X110928632Y-63383475D01*
X111135475Y-63176632D01*
X111257195Y-62994466D01*
X111326822Y-63111355D01*
X111521731Y-63327588D01*
X111755080Y-63501641D01*
X112017901Y-63626825D01*
X112165110Y-63671476D01*
X112395000Y-63550155D01*
X112395000Y-62357000D01*
X112375000Y-62357000D01*
X112375000Y-62103000D01*
X112395000Y-62103000D01*
X112395000Y-60909845D01*
X112649000Y-60909845D01*
X112649000Y-62103000D01*
X112669000Y-62103000D01*
X112669000Y-62357000D01*
X112649000Y-62357000D01*
X112649000Y-63550155D01*
X112878890Y-63671476D01*
X113026099Y-63626825D01*
X113288920Y-63501641D01*
X113522269Y-63327588D01*
X113717178Y-63111355D01*
X113786805Y-62994466D01*
X113908525Y-63176632D01*
X114115368Y-63383475D01*
X114277000Y-63491474D01*
X114277001Y-64632461D01*
X114260899Y-64641068D01*
X114042392Y-64820393D01*
X113863068Y-65038900D01*
X113793878Y-65168345D01*
X113786430Y-65150773D01*
X113627673Y-64917338D01*
X113426425Y-64719361D01*
X113190421Y-64564449D01*
X112928730Y-64458556D01*
X112871039Y-64448096D01*
X112649000Y-64570085D01*
X112649000Y-65913000D01*
X112669000Y-65913000D01*
X112669000Y-66167000D01*
X112649000Y-66167000D01*
X112649000Y-67509915D01*
X112871039Y-67631904D01*
X112928730Y-67621444D01*
X113190421Y-67515551D01*
X113426425Y-67360639D01*
X113627673Y-67162662D01*
X113786430Y-66929227D01*
X113793878Y-66911655D01*
X113863068Y-67041101D01*
X114042393Y-67259608D01*
X114260900Y-67438932D01*
X114510193Y-67572182D01*
X114780692Y-67654236D01*
X115062000Y-67681943D01*
X115343309Y-67654236D01*
X115613808Y-67572182D01*
X115863101Y-67438932D01*
X116081608Y-67259608D01*
X116260932Y-67041101D01*
X116394182Y-66791807D01*
X116476236Y-66521308D01*
X116497000Y-66310491D01*
X116497000Y-65769508D01*
X116476236Y-65558691D01*
X116394182Y-65288192D01*
X116260932Y-65038899D01*
X116081607Y-64820392D01*
X115863100Y-64641068D01*
X115847000Y-64632462D01*
X115847000Y-63491474D01*
X116008632Y-63383475D01*
X116215475Y-63176632D01*
X116377990Y-62933411D01*
X116489932Y-62663158D01*
X116547000Y-62376260D01*
X116547000Y-62083740D01*
X116489932Y-61796842D01*
X116377990Y-61526589D01*
X116215475Y-61283368D01*
X116008632Y-61076525D01*
X115765411Y-60914010D01*
X115495158Y-60802068D01*
X115208260Y-60745000D01*
X114915740Y-60745000D01*
X114628842Y-60802068D01*
X114358589Y-60914010D01*
X114115368Y-61076525D01*
X113908525Y-61283368D01*
X113786805Y-61465534D01*
X113717178Y-61348645D01*
X113522269Y-61132412D01*
X113288920Y-60958359D01*
X113026099Y-60833175D01*
X112878890Y-60788524D01*
X112649000Y-60909845D01*
X112395000Y-60909845D01*
X112165110Y-60788524D01*
X112017901Y-60833175D01*
X111755080Y-60958359D01*
X111521731Y-61132412D01*
X111326822Y-61348645D01*
X111257195Y-61465534D01*
X111135475Y-61283368D01*
X110928632Y-61076525D01*
X110685411Y-60914010D01*
X110415158Y-60802068D01*
X110128260Y-60745000D01*
X109835740Y-60745000D01*
X109548842Y-60802068D01*
X109278589Y-60914010D01*
X109035368Y-61076525D01*
X108828525Y-61283368D01*
X108712000Y-61457760D01*
X108595475Y-61283368D01*
X108388632Y-61076525D01*
X108145411Y-60914010D01*
X107875158Y-60802068D01*
X107588260Y-60745000D01*
X107295740Y-60745000D01*
X107008842Y-60802068D01*
X106738589Y-60914010D01*
X106495368Y-61076525D01*
X106288525Y-61283368D01*
X106172000Y-61457760D01*
X106055475Y-61283368D01*
X105848632Y-61076525D01*
X105605411Y-60914010D01*
X105335158Y-60802068D01*
X105048260Y-60745000D01*
X104755740Y-60745000D01*
X104468842Y-60802068D01*
X104198589Y-60914010D01*
X103955368Y-61076525D01*
X103748525Y-61283368D01*
X103632000Y-61457760D01*
X103515475Y-61283368D01*
X103308632Y-61076525D01*
X103065411Y-60914010D01*
X102795158Y-60802068D01*
X102508260Y-60745000D01*
X102215740Y-60745000D01*
X102025082Y-60782925D01*
X100957157Y-59715000D01*
X117525000Y-59715000D01*
X117525001Y-95225000D01*
G04 #@! TA.AperFunction,Conductor*
D19*
G36*
X117525001Y-95225000D02*
G01*
X86437295Y-95225000D01*
X86470537Y-95184494D01*
X86529502Y-95074180D01*
X86565812Y-94954482D01*
X86578072Y-94830000D01*
X86578072Y-93130000D01*
X86565812Y-93005518D01*
X86529502Y-92885820D01*
X86470537Y-92775506D01*
X86391185Y-92678815D01*
X86294494Y-92599463D01*
X86184180Y-92540498D01*
X86103534Y-92516034D01*
X86187588Y-92440269D01*
X86361641Y-92206920D01*
X86486825Y-91944099D01*
X86531476Y-91796890D01*
X86410155Y-91567000D01*
X85217000Y-91567000D01*
X85217000Y-91587000D01*
X84963000Y-91587000D01*
X84963000Y-91567000D01*
X84943000Y-91567000D01*
X84943000Y-91313000D01*
X84963000Y-91313000D01*
X84963000Y-91293000D01*
X85217000Y-91293000D01*
X85217000Y-91313000D01*
X86410155Y-91313000D01*
X86531476Y-91083110D01*
X86523203Y-91055835D01*
X87450429Y-91969975D01*
X87473235Y-91997764D01*
X87505347Y-92024118D01*
X87507338Y-92026081D01*
X87535137Y-92048567D01*
X87592766Y-92095862D01*
X87595252Y-92097191D01*
X87597438Y-92098959D01*
X87663318Y-92133573D01*
X87729139Y-92168754D01*
X87731838Y-92169573D01*
X87734326Y-92170880D01*
X87805789Y-92192005D01*
X87877112Y-92213641D01*
X87879910Y-92213917D01*
X87882614Y-92214716D01*
X87956822Y-92221492D01*
X87992438Y-92225000D01*
X87995240Y-92225000D01*
X88036604Y-92228777D01*
X88072348Y-92225000D01*
X95793928Y-92225000D01*
X95793928Y-93560000D01*
X95806188Y-93684482D01*
X95842498Y-93804180D01*
X95901463Y-93914494D01*
X95980815Y-94011185D01*
X96077506Y-94090537D01*
X96187820Y-94149502D01*
X96307518Y-94185812D01*
X96432000Y-94198072D01*
X98132000Y-94198072D01*
X98256482Y-94185812D01*
X98376180Y-94149502D01*
X98486494Y-94090537D01*
X98583185Y-94011185D01*
X98662537Y-93914494D01*
X98721502Y-93804180D01*
X98743513Y-93731620D01*
X98875368Y-93863475D01*
X99118589Y-94025990D01*
X99388842Y-94137932D01*
X99675740Y-94195000D01*
X99968260Y-94195000D01*
X100255158Y-94137932D01*
X100525411Y-94025990D01*
X100768632Y-93863475D01*
X100975475Y-93656632D01*
X101092000Y-93482240D01*
X101208525Y-93656632D01*
X101415368Y-93863475D01*
X101658589Y-94025990D01*
X101928842Y-94137932D01*
X102215740Y-94195000D01*
X102508260Y-94195000D01*
X102795158Y-94137932D01*
X103065411Y-94025990D01*
X103308632Y-93863475D01*
X103515475Y-93656632D01*
X103632000Y-93482240D01*
X103748525Y-93656632D01*
X103955368Y-93863475D01*
X104198589Y-94025990D01*
X104468842Y-94137932D01*
X104755740Y-94195000D01*
X105048260Y-94195000D01*
X105335158Y-94137932D01*
X105605411Y-94025990D01*
X105848632Y-93863475D01*
X106055475Y-93656632D01*
X106172000Y-93482240D01*
X106288525Y-93656632D01*
X106495368Y-93863475D01*
X106738589Y-94025990D01*
X107008842Y-94137932D01*
X107295740Y-94195000D01*
X107588260Y-94195000D01*
X107875158Y-94137932D01*
X108145411Y-94025990D01*
X108388632Y-93863475D01*
X108595475Y-93656632D01*
X108712000Y-93482240D01*
X108828525Y-93656632D01*
X109035368Y-93863475D01*
X109278589Y-94025990D01*
X109548842Y-94137932D01*
X109835740Y-94195000D01*
X110128260Y-94195000D01*
X110415158Y-94137932D01*
X110685411Y-94025990D01*
X110928632Y-93863475D01*
X111135475Y-93656632D01*
X111252000Y-93482240D01*
X111368525Y-93656632D01*
X111575368Y-93863475D01*
X111818589Y-94025990D01*
X112088842Y-94137932D01*
X112375740Y-94195000D01*
X112668260Y-94195000D01*
X112955158Y-94137932D01*
X113225411Y-94025990D01*
X113468632Y-93863475D01*
X113675475Y-93656632D01*
X113792000Y-93482240D01*
X113908525Y-93656632D01*
X114115368Y-93863475D01*
X114358589Y-94025990D01*
X114628842Y-94137932D01*
X114915740Y-94195000D01*
X115208260Y-94195000D01*
X115495158Y-94137932D01*
X115765411Y-94025990D01*
X116008632Y-93863475D01*
X116215475Y-93656632D01*
X116377990Y-93413411D01*
X116489932Y-93143158D01*
X116547000Y-92856260D01*
X116547000Y-92563740D01*
X116489932Y-92276842D01*
X116377990Y-92006589D01*
X116215475Y-91763368D01*
X116008632Y-91556525D01*
X115765411Y-91394010D01*
X115495158Y-91282068D01*
X115208260Y-91225000D01*
X114915740Y-91225000D01*
X114628842Y-91282068D01*
X114358589Y-91394010D01*
X114115368Y-91556525D01*
X113908525Y-91763368D01*
X113792000Y-91937760D01*
X113675475Y-91763368D01*
X113468632Y-91556525D01*
X113225411Y-91394010D01*
X112955158Y-91282068D01*
X112668260Y-91225000D01*
X112375740Y-91225000D01*
X112088842Y-91282068D01*
X111818589Y-91394010D01*
X111575368Y-91556525D01*
X111368525Y-91763368D01*
X111252000Y-91937760D01*
X111135475Y-91763368D01*
X110928632Y-91556525D01*
X110685411Y-91394010D01*
X110415158Y-91282068D01*
X110128260Y-91225000D01*
X109835740Y-91225000D01*
X109572979Y-91277267D01*
X109155455Y-90897700D01*
X109142764Y-90882236D01*
X109098345Y-90845782D01*
X109084515Y-90833209D01*
X109068576Y-90821351D01*
X109023233Y-90784138D01*
X109006629Y-90775263D01*
X108991540Y-90764037D01*
X108938590Y-90738896D01*
X108886860Y-90711246D01*
X108868849Y-90705783D01*
X108851854Y-90697713D01*
X108795003Y-90683382D01*
X108738887Y-90666359D01*
X108720159Y-90664514D01*
X108701914Y-90659915D01*
X108643366Y-90656951D01*
X108623561Y-90655000D01*
X108604838Y-90655000D01*
X108547481Y-90652096D01*
X108527698Y-90655000D01*
X104257157Y-90655000D01*
X104449770Y-90462388D01*
X104620692Y-90514236D01*
X104902000Y-90541943D01*
X105183309Y-90514236D01*
X105453808Y-90432182D01*
X105703101Y-90298932D01*
X105921608Y-90119608D01*
X106100932Y-89901101D01*
X106172000Y-89768142D01*
X106243068Y-89901101D01*
X106422393Y-90119608D01*
X106640900Y-90298932D01*
X106890193Y-90432182D01*
X107160692Y-90514236D01*
X107442000Y-90541943D01*
X107723309Y-90514236D01*
X107993808Y-90432182D01*
X108243101Y-90298932D01*
X108461608Y-90119608D01*
X108640932Y-89901101D01*
X108712000Y-89768142D01*
X108783068Y-89901101D01*
X108962393Y-90119608D01*
X109180900Y-90298932D01*
X109430193Y-90432182D01*
X109700692Y-90514236D01*
X109982000Y-90541943D01*
X110263309Y-90514236D01*
X110533808Y-90432182D01*
X110783101Y-90298932D01*
X111001608Y-90119608D01*
X111180932Y-89901101D01*
X111252000Y-89768142D01*
X111323068Y-89901101D01*
X111502393Y-90119608D01*
X111720900Y-90298932D01*
X111970193Y-90432182D01*
X112240692Y-90514236D01*
X112522000Y-90541943D01*
X112803309Y-90514236D01*
X113073808Y-90432182D01*
X113323101Y-90298932D01*
X113541608Y-90119608D01*
X113720932Y-89901101D01*
X113792000Y-89768142D01*
X113863068Y-89901101D01*
X114042393Y-90119608D01*
X114260900Y-90298932D01*
X114510193Y-90432182D01*
X114780692Y-90514236D01*
X115062000Y-90541943D01*
X115343309Y-90514236D01*
X115613808Y-90432182D01*
X115863101Y-90298932D01*
X116081608Y-90119608D01*
X116260932Y-89901101D01*
X116394182Y-89651807D01*
X116476236Y-89381308D01*
X116497000Y-89170491D01*
X116497000Y-88629508D01*
X116476236Y-88418691D01*
X116394182Y-88148192D01*
X116260932Y-87898899D01*
X116081607Y-87680392D01*
X115863100Y-87501068D01*
X115613807Y-87367818D01*
X115343308Y-87285764D01*
X115062000Y-87258057D01*
X114780691Y-87285764D01*
X114510192Y-87367818D01*
X114260899Y-87501068D01*
X114042392Y-87680393D01*
X113863068Y-87898900D01*
X113792000Y-88031858D01*
X113720932Y-87898899D01*
X113541607Y-87680392D01*
X113323100Y-87501068D01*
X113073807Y-87367818D01*
X112803308Y-87285764D01*
X112522000Y-87258057D01*
X112240691Y-87285764D01*
X111970192Y-87367818D01*
X111720899Y-87501068D01*
X111502392Y-87680393D01*
X111323068Y-87898900D01*
X111252000Y-88031858D01*
X111180932Y-87898899D01*
X111001607Y-87680392D01*
X110783100Y-87501068D01*
X110533807Y-87367818D01*
X110263308Y-87285764D01*
X109982000Y-87258057D01*
X109700691Y-87285764D01*
X109430192Y-87367818D01*
X109180899Y-87501068D01*
X108962392Y-87680393D01*
X108783068Y-87898900D01*
X108712000Y-88031858D01*
X108640932Y-87898899D01*
X108461607Y-87680392D01*
X108243100Y-87501068D01*
X107993807Y-87367818D01*
X107723308Y-87285764D01*
X107442000Y-87258057D01*
X107160691Y-87285764D01*
X106890192Y-87367818D01*
X106640899Y-87501068D01*
X106422392Y-87680393D01*
X106243068Y-87898900D01*
X106172000Y-88031858D01*
X106100932Y-87898899D01*
X105921607Y-87680392D01*
X105703100Y-87501068D01*
X105453807Y-87367818D01*
X105183308Y-87285764D01*
X104902000Y-87258057D01*
X104620691Y-87285764D01*
X104350192Y-87367818D01*
X104100899Y-87501068D01*
X103882392Y-87680393D01*
X103703068Y-87898900D01*
X103632000Y-88031858D01*
X103560932Y-87898899D01*
X103381607Y-87680392D01*
X103163100Y-87501068D01*
X102913807Y-87367818D01*
X102643308Y-87285764D01*
X102362000Y-87258057D01*
X102080691Y-87285764D01*
X101810192Y-87367818D01*
X101560899Y-87501068D01*
X101342392Y-87680393D01*
X101163068Y-87898900D01*
X101092000Y-88031858D01*
X101020932Y-87898899D01*
X100841607Y-87680392D01*
X100623100Y-87501068D01*
X100373807Y-87367818D01*
X100103308Y-87285764D01*
X99822000Y-87258057D01*
X99540691Y-87285764D01*
X99270192Y-87367818D01*
X99020899Y-87501068D01*
X98859559Y-87633477D01*
X98812537Y-87545506D01*
X98733185Y-87448815D01*
X98636494Y-87369463D01*
X98526180Y-87310498D01*
X98406482Y-87274188D01*
X98282000Y-87261928D01*
X96282000Y-87261928D01*
X96157518Y-87274188D01*
X96037820Y-87310498D01*
X96012000Y-87324299D01*
X96012000Y-66908142D01*
X96083068Y-67041101D01*
X96262393Y-67259608D01*
X96480900Y-67438932D01*
X96730193Y-67572182D01*
X97000692Y-67654236D01*
X97282000Y-67681943D01*
X97563309Y-67654236D01*
X97833808Y-67572182D01*
X98083101Y-67438932D01*
X98301608Y-67259608D01*
X98480932Y-67041101D01*
X98552000Y-66908142D01*
X98623068Y-67041101D01*
X98802393Y-67259608D01*
X99020900Y-67438932D01*
X99270193Y-67572182D01*
X99540692Y-67654236D01*
X99822000Y-67681943D01*
X100103309Y-67654236D01*
X100373808Y-67572182D01*
X100623101Y-67438932D01*
X100841608Y-67259608D01*
X101020932Y-67041101D01*
X101092000Y-66908142D01*
X101163068Y-67041101D01*
X101342393Y-67259608D01*
X101560900Y-67438932D01*
X101810193Y-67572182D01*
X102080692Y-67654236D01*
X102362000Y-67681943D01*
X102643309Y-67654236D01*
X102913808Y-67572182D01*
X103163101Y-67438932D01*
X103381608Y-67259608D01*
X103560932Y-67041101D01*
X103632000Y-66908142D01*
X103703068Y-67041101D01*
X103882393Y-67259608D01*
X104100900Y-67438932D01*
X104350193Y-67572182D01*
X104620692Y-67654236D01*
X104902000Y-67681943D01*
X105183309Y-67654236D01*
X105453808Y-67572182D01*
X105703101Y-67438932D01*
X105921608Y-67259608D01*
X106100932Y-67041101D01*
X106172000Y-66908142D01*
X106243068Y-67041101D01*
X106422393Y-67259608D01*
X106640900Y-67438932D01*
X106890193Y-67572182D01*
X107160692Y-67654236D01*
X107442000Y-67681943D01*
X107723309Y-67654236D01*
X107993808Y-67572182D01*
X108243101Y-67438932D01*
X108461608Y-67259608D01*
X108640932Y-67041101D01*
X108712000Y-66908142D01*
X108783068Y-67041101D01*
X108962393Y-67259608D01*
X109180900Y-67438932D01*
X109430193Y-67572182D01*
X109700692Y-67654236D01*
X109982000Y-67681943D01*
X110263309Y-67654236D01*
X110533808Y-67572182D01*
X110783101Y-67438932D01*
X111001608Y-67259608D01*
X111180932Y-67041101D01*
X111250122Y-66911655D01*
X111257570Y-66929227D01*
X111416327Y-67162662D01*
X111617575Y-67360639D01*
X111853579Y-67515551D01*
X112115270Y-67621444D01*
X112172961Y-67631904D01*
X112395000Y-67509915D01*
X112395000Y-66167000D01*
X112375000Y-66167000D01*
X112375000Y-65913000D01*
X112395000Y-65913000D01*
X112395000Y-64570085D01*
X112172961Y-64448096D01*
X112115270Y-64458556D01*
X111853579Y-64564449D01*
X111617575Y-64719361D01*
X111416327Y-64917338D01*
X111257570Y-65150773D01*
X111250122Y-65168345D01*
X111180932Y-65038899D01*
X111001607Y-64820392D01*
X110783100Y-64641068D01*
X110767000Y-64632462D01*
X110767000Y-63491474D01*
X110928632Y-63383475D01*
X111135475Y-63176632D01*
X111257195Y-62994466D01*
X111326822Y-63111355D01*
X111521731Y-63327588D01*
X111755080Y-63501641D01*
X112017901Y-63626825D01*
X112165110Y-63671476D01*
X112395000Y-63550155D01*
X112395000Y-62357000D01*
X112375000Y-62357000D01*
X112375000Y-62103000D01*
X112395000Y-62103000D01*
X112395000Y-60909845D01*
X112649000Y-60909845D01*
X112649000Y-62103000D01*
X112669000Y-62103000D01*
X112669000Y-62357000D01*
X112649000Y-62357000D01*
X112649000Y-63550155D01*
X112878890Y-63671476D01*
X113026099Y-63626825D01*
X113288920Y-63501641D01*
X113522269Y-63327588D01*
X113717178Y-63111355D01*
X113786805Y-62994466D01*
X113908525Y-63176632D01*
X114115368Y-63383475D01*
X114277000Y-63491474D01*
X114277001Y-64632461D01*
X114260899Y-64641068D01*
X114042392Y-64820393D01*
X113863068Y-65038900D01*
X113793878Y-65168345D01*
X113786430Y-65150773D01*
X113627673Y-64917338D01*
X113426425Y-64719361D01*
X113190421Y-64564449D01*
X112928730Y-64458556D01*
X112871039Y-64448096D01*
X112649000Y-64570085D01*
X112649000Y-65913000D01*
X112669000Y-65913000D01*
X112669000Y-66167000D01*
X112649000Y-66167000D01*
X112649000Y-67509915D01*
X112871039Y-67631904D01*
X112928730Y-67621444D01*
X113190421Y-67515551D01*
X113426425Y-67360639D01*
X113627673Y-67162662D01*
X113786430Y-66929227D01*
X113793878Y-66911655D01*
X113863068Y-67041101D01*
X114042393Y-67259608D01*
X114260900Y-67438932D01*
X114510193Y-67572182D01*
X114780692Y-67654236D01*
X115062000Y-67681943D01*
X115343309Y-67654236D01*
X115613808Y-67572182D01*
X115863101Y-67438932D01*
X116081608Y-67259608D01*
X116260932Y-67041101D01*
X116394182Y-66791807D01*
X116476236Y-66521308D01*
X116497000Y-66310491D01*
X116497000Y-65769508D01*
X116476236Y-65558691D01*
X116394182Y-65288192D01*
X116260932Y-65038899D01*
X116081607Y-64820392D01*
X115863100Y-64641068D01*
X115847000Y-64632462D01*
X115847000Y-63491474D01*
X116008632Y-63383475D01*
X116215475Y-63176632D01*
X116377990Y-62933411D01*
X116489932Y-62663158D01*
X116547000Y-62376260D01*
X116547000Y-62083740D01*
X116489932Y-61796842D01*
X116377990Y-61526589D01*
X116215475Y-61283368D01*
X116008632Y-61076525D01*
X115765411Y-60914010D01*
X115495158Y-60802068D01*
X115208260Y-60745000D01*
X114915740Y-60745000D01*
X114628842Y-60802068D01*
X114358589Y-60914010D01*
X114115368Y-61076525D01*
X113908525Y-61283368D01*
X113786805Y-61465534D01*
X113717178Y-61348645D01*
X113522269Y-61132412D01*
X113288920Y-60958359D01*
X113026099Y-60833175D01*
X112878890Y-60788524D01*
X112649000Y-60909845D01*
X112395000Y-60909845D01*
X112165110Y-60788524D01*
X112017901Y-60833175D01*
X111755080Y-60958359D01*
X111521731Y-61132412D01*
X111326822Y-61348645D01*
X111257195Y-61465534D01*
X111135475Y-61283368D01*
X110928632Y-61076525D01*
X110685411Y-60914010D01*
X110415158Y-60802068D01*
X110128260Y-60745000D01*
X109835740Y-60745000D01*
X109548842Y-60802068D01*
X109278589Y-60914010D01*
X109035368Y-61076525D01*
X108828525Y-61283368D01*
X108712000Y-61457760D01*
X108595475Y-61283368D01*
X108388632Y-61076525D01*
X108145411Y-60914010D01*
X107875158Y-60802068D01*
X107588260Y-60745000D01*
X107295740Y-60745000D01*
X107008842Y-60802068D01*
X106738589Y-60914010D01*
X106495368Y-61076525D01*
X106288525Y-61283368D01*
X106172000Y-61457760D01*
X106055475Y-61283368D01*
X105848632Y-61076525D01*
X105605411Y-60914010D01*
X105335158Y-60802068D01*
X105048260Y-60745000D01*
X104755740Y-60745000D01*
X104468842Y-60802068D01*
X104198589Y-60914010D01*
X103955368Y-61076525D01*
X103748525Y-61283368D01*
X103632000Y-61457760D01*
X103515475Y-61283368D01*
X103308632Y-61076525D01*
X103065411Y-60914010D01*
X102795158Y-60802068D01*
X102508260Y-60745000D01*
X102215740Y-60745000D01*
X102025082Y-60782925D01*
X100957157Y-59715000D01*
X117525000Y-59715000D01*
X117525001Y-95225000D01*
G37*
G04 #@! TD.AperFunction*
M02*
